<svg width="48" height="48" viewBox="0 0 48 48" fill="none" xmlns="http://www.w3.org/2000/svg">
<path d="M34.6909 35.7431C40.3166 31.1911 39.1918 24.3627 34.6909 18.1039C30.1899 11.845 24.565 7.29288 17.8142 11.8449C11.0633 16.3969 13.3136 26.0699 17.2512 31.7599C21.1889 37.4499 29.0652 40.2951 34.6909 35.7431Z" stroke="white" stroke-width="2" stroke-linecap="round"/>
<path d="M9.5 16C9.3646 16 9.22921 16 8.7039 15.8969C8.17858 15.7937 7.26745 15.5875 6.50181 15.4194C5.73617 15.2512 5.14363 15.1275 4.5 15" stroke="white" stroke-width="2" stroke-linecap="round"/>
<path d="M9.5 22C9.5 22.0187 9.5 22.0373 8.345 22.1933C7.19 22.3492 4.88 22.6419 2.5 23" stroke="white" stroke-width="2" stroke-linecap="round"/>
<path d="M18.5 12C18.9438 12.6298 19.5497 13.4991 20.2307 14.4932M24.5 21C24.0422 20.254 23.5341 19.4547 23.0078 18.6448M20.2307 14.4932C19.2997 15.3443 19.4845 16.9731 20.0946 17.8834C20.6972 18.7825 21.7352 19.4498 23.0078 18.6448C23.077 18.601 23.147 18.5528 23.2177 18.5C24.5858 17.4783 23.9395 16.1192 23.2177 15.1456C22.4958 14.1719 21.4191 13.5751 20.3521 14.3917C20.3097 14.4241 20.2692 14.458 20.2307 14.4932Z" stroke="white" stroke-width="2" stroke-linecap="round"/>
<path d="M14.5 26C14.9731 25.7175 19.0596 23.2271 24.2581 21.1363C29.4567 19.0454 33.5 18 33.5 18" stroke="white" stroke-width="2" stroke-linecap="round"/>
</svg>
