<svg width="32" height="32" viewBox="0 0 32 32" fill="none" xmlns="http://www.w3.org/2000/svg">
<g clip-path="url(#clip0_3567_13362)">
<rect width="32" height="32" rx="16" fill="#312930"/>
<path d="M11.0335 0.540762C11.9729 2.45121 12.6738 4.4937 13.1347 6.60446C13.5939 8.70777 13.8106 10.8701 13.7864 13.0324C13.7737 14.169 13.7077 15.3125 13.4774 16.4238C13.243 17.555 12.7922 18.6073 12.4878 19.7144C12.1825 20.8256 12.0114 21.9858 11.977 23.1459C11.9444 24.2322 11.9571 25.4215 12.6445 26.2833C13.2131 26.996 14.0955 27.4062 14.9357 27.5424C15.7713 27.6778 16.636 27.5806 17.4255 27.2464C18.2225 26.9087 18.9338 26.3611 19.462 25.6198C19.9883 24.8811 20.3424 24.0014 20.4847 23.0762C20.6281 22.145 20.5789 21.1803 20.3033 20.2828C19.9847 19.2455 19.4348 18.3211 19.0158 17.3332C18.2991 15.6434 17.8524 13.806 17.678 11.953C17.5018 10.0799 17.5879 8.17657 17.9423 6.33409C18.2967 4.49191 18.9099 2.71322 19.7835 1.09133C19.9994 0.6907 20.2305 0.300504 20.476 -0.0789618C20.5651 -0.216976 20.4983 -0.427128 20.3736 -0.507314C20.2308 -0.599125 20.073 -0.533247 19.9834 -0.394935C18.9883 1.1435 18.2366 2.86763 17.7405 4.67285C17.2438 6.47986 17.0018 8.37719 17.02 10.2644C17.0385 12.1495 17.3147 14.04 17.8605 15.8285C18.1435 16.7555 18.5014 17.6504 18.9172 18.5145C19.3517 19.4175 19.8112 20.3159 19.95 21.3407C20.1803 23.0398 19.5831 24.9184 18.3225 25.993C17.0882 27.0452 15.2822 27.315 13.882 26.5307C13.5216 26.3289 13.1713 26.0585 12.938 25.6892C12.6803 25.2811 12.5902 24.797 12.56 24.3088C12.4905 23.1901 12.5766 22.0514 12.787 20.955C12.8954 20.3907 13.0393 19.836 13.2126 19.2914C13.3859 18.7468 13.5768 18.2233 13.7432 17.6829C14.0811 16.5853 14.2459 15.4428 14.3138 14.2886C14.4412 12.1191 14.3046 9.92575 13.945 7.78936C13.5876 5.66578 12.9899 3.59437 12.1668 1.63296C11.9666 1.15631 11.7526 0.686825 11.5253 0.225088C11.351 -0.129637 10.8584 0.186038 11.033 0.54106L11.0335 0.540762Z" fill="#DF93E9" stroke="#DF93E9" stroke-width="0.549828"/>
<path d="M21.2398 32.0918C19.6627 30.9156 18.6722 29.082 18.3742 27.1685C18.2296 26.2406 18.2658 25.2338 18.4899 24.3146C18.749 23.2522 19.2958 22.3396 19.827 21.3839C20.3782 20.3922 20.9212 19.3093 20.8646 18.1491C20.8096 17.0238 20.1942 16.0384 19.3638 15.2903C18.4811 14.4946 17.4066 13.9849 16.3369 13.4789C15.2671 12.973 14.1376 12.4338 13.3202 11.542C12.6238 10.7821 12.1321 9.73638 12.4039 8.70572C12.6545 7.75587 13.463 7.0678 14.337 6.6239C15.364 6.10208 16.5698 5.86512 17.7237 5.8859C18.8883 5.90697 20.0517 6.23455 20.983 6.93532C21.791 7.54316 22.4076 8.40902 22.6202 9.38917C22.8675 10.5292 22.508 11.7105 21.93 12.6996C21.3028 13.7724 20.3979 14.649 19.4866 15.4903C18.5812 16.3262 17.6825 17.1594 16.8601 18.0755C15.2424 19.8779 13.8623 21.874 12.6368 23.9492C11.4013 26.0411 10.3174 28.2147 9.2674 30.4004C9.01211 30.9321 8.75859 31.4646 8.50536 31.9974C8.43499 32.1457 8.46296 32.3241 8.61637 32.4121C8.75005 32.4889 8.96853 32.4525 9.03949 32.3033C10.1066 30.0587 11.1781 27.8138 12.3824 25.6359C13.5646 23.4984 14.8749 21.4154 16.4296 19.5169C17.2129 18.5604 18.0565 17.6532 18.9613 16.8058C19.9018 15.925 20.8938 15.0865 21.7059 14.085C22.5142 13.0884 23.1349 11.9299 23.2853 10.6513C23.419 9.51588 23.0821 8.37698 22.379 7.46898C21.6744 6.55925 20.6944 5.90091 19.5826 5.56265C18.3138 5.17647 16.9328 5.20735 15.6505 5.51329C14.571 5.77045 13.4972 6.24754 12.7104 7.03432C12.3326 7.41213 12.0329 7.86208 11.8618 8.36544C11.6766 8.91006 11.6684 9.50087 11.8023 10.057C12.0806 11.2127 12.9342 12.1749 13.9026 12.8466C14.9544 13.5759 16.167 14.0293 17.2965 14.6236C18.2646 15.133 19.211 15.7876 19.7872 16.7271C20.0599 17.1715 20.2301 17.6694 20.2484 18.1906C20.2681 18.7454 20.1315 19.2834 19.928 19.7977C19.5016 20.8765 18.8023 21.8281 18.3315 22.8874C17.906 23.8444 17.6855 24.8748 17.6722 25.9187C17.646 27.9746 18.4019 30.0385 19.7884 31.5846C20.1315 31.9671 20.5148 32.3068 20.9277 32.615C21.0607 32.7143 21.2736 32.6355 21.3508 32.5062C21.4438 32.3506 21.3732 32.191 21.2398 32.0915V32.0918Z" fill="#DF93E9" stroke="#DF93E9" stroke-width="0.549828"/>
</g>
<defs>
<clipPath id="clip0_3567_13362">
<rect width="32" height="32" rx="16" fill="white"/>
</clipPath>
</defs>
</svg>
