<svg width="48" height="48" viewBox="0 0 48 48" fill="none" xmlns="http://www.w3.org/2000/svg">
<path d="M22 10C18.385 14.4953 15.5 20 14.5 25C13.5 30 13.0001 34.5982 13 36.0563C12.9999 37.5144 19.302 38.8104 20.115 27.5095C20.1908 26.4555 19.7746 30.062 23.3982 30.062C27.0218 30.062 26.2414 26.9741 26.2414 26.9741C26.355 27.4121 26.8416 29.0834 27.6707 29.7635C29.4996 31.264 32.772 30.3683 31.3416 27.45M31.3416 27.45C31.3083 27.382 31.2723 27.3128 31.2338 27.2426C31.2662 27.3072 31.3022 27.3766 31.3416 27.45ZM31.3416 27.45C31.8631 28.4219 32.9723 30.0851 34.0018 30.3252C35.3858 30.6479 39.9991 28.2274 36.4622 25.3228M36.4622 25.3228L38 19.5M36.4622 25.3228L35.8471 27.2426" stroke="white" stroke-width="2" stroke-linecap="round" stroke-linejoin="round"/>
<path d="M9.73469 27.0149C9.60654 26.8776 9.47838 26.7404 9.08568 26.1103C8.69299 25.4802 8.03964 24.3613 7.48535 23.4261C6.93106 22.4909 6.49562 21.7731 6.01562 21" stroke="white" stroke-width="2" stroke-linecap="round"/>
<path d="M8.50793 32.6056C8.49429 32.6184 8.48065 32.6311 7.57839 31.8933C6.67612 31.1556 4.88564 29.667 2.99958 28.1719" stroke="white" stroke-width="2" stroke-linecap="round"/>
</svg>
