<svg xmlns="http://www.w3.org/2000/svg" width="64" height="64" fill="currentColor" viewBox="0 0 64 64">
  <g class="favicon" clip-path="url(#a)">
    <g class="Clip path group">
      <mask id="b" width="64" height="64" x="0" y="0" class="mask0_3703" maskUnits="userSpaceOnUse" style="mask-type:luminance">
        <g class="clip0_2763">
          <path fill="#fff" d="M49.6 0H14.4C6.4 0 0 6.4 0 14.4v35.2C0 57.6 6.4 64 14.4 64h35.2c8 0 14.4-6.4 14.4-14.4V14.4C64 6.4 57.6 0 49.6 0Z" class="Vector"/>
        </g>
      </mask>
      <g class="Group" mask="url(#b)">
        <path fill="#000" d="M49.6 0H14.4C6.4 0 0 6.4 0 14.4v35.2C0 57.6 6.4 64 14.4 64h35.2c8 0 14.4-6.4 14.4-14.4V14.4C64 6.4 57.6 0 49.6 0Z" class="Vector"/>
        <g class="Group" filter="url(#c)">
          <path fill="url(#d)" d="M121.4 68.9C116 98.6 45.3 78.6 15 65.3-8.3 58 12.3 78-40 64.8-92.1 51.5 4.3 13.4.3 41S55 69.5 37 48.3c-18.1-21 24.4-43 56.2-43.2 31.8-.1-39.9 3.3-12 53.7 23.3 42.1 45.7-29.9 48.5-26.3 2.7 3.6-1.3-.8-8.2 36.4Z" class="Vector"/>
        </g>
        <g class="Mask group">
          <mask id="f" width="64" height="65" x="0" y="0" class="mask1_3703" maskUnits="userSpaceOnUse" style="mask-type:alpha">
            <g class="Group">
              <path fill="url(#e)" d="M14.3 64.4h35.4C57.6 64.4 64 58 64 50V14.7C64 6.7 57.6.4 49.7.4H14.3C6.4.4 0 6.8 0 14.7V50C0 58 6.4 64.4 14.3 64.4Z" class="Vector"/>
            </g>
          </mask>
          <g class="Group" mask="url(#f)">
            <g class="Group" filter="url(#g)">
              <path stroke="#6200FF" stroke-width="18" d="M64 18.7c0-6.3-.7-8.7-2-11a13 13 0 0 0-5.3-5.4c-2.4-1.2-4.7-2-11-2H18.3c-6.3 0-8.6.8-11 2A13 13 0 0 0 2 7.7C.7 10 0 12.4 0 18.7V46c0 6.4.7 8.7 2 11a13 13 0 0 0 5.3 5.5c2.4 1.2 4.7 1.9 11 1.9h27.4c6.3 0 8.6-.7 11-2a13 13 0 0 0 5.4-5.3c1.2-2.4 1.9-4.7 1.9-11V18.6Z" class="Vector"/>
            </g>
            <g class="Group" filter="url(#h)" opacity=".3">
              <path stroke="url(#i)" stroke-width="41.2" d="M64 18.7c0-6.3-.7-8.7-2-11a13 13 0 0 0-5.3-5.4c-2.4-1.2-4.7-2-11-2H18.3c-6.3 0-8.6.8-11 2A13 13 0 0 0 2 7.7C.7 10 0 12.4 0 18.7V46c0 6.4.7 8.7 2 11a13 13 0 0 0 5.3 5.5c2.4 1.2 4.7 1.9 11 1.9h27.4c6.3 0 8.6-.7 11-2a13 13 0 0 0 5.4-5.3c1.2-2.4 1.9-4.7 1.9-11V18.6Z" class="Vector"/>
            </g>
            <g class="Group" filter="url(#j)" opacity=".6">
              <path stroke="url(#k)" stroke-width="24" d="M64 18.7c0-6.3-.7-8.7-2-11a13 13 0 0 0-5.3-5.4c-2.4-1.2-4.7-2-11-2H18.3c-6.3 0-8.6.8-11 2A13 13 0 0 0 2 7.7C.7 10 0 12.4 0 18.7V46c0 6.4.7 8.7 2 11a13 13 0 0 0 5.3 5.5c2.4 1.2 4.7 1.9 11 1.9h27.4c6.3 0 8.6-.7 11-2a13 13 0 0 0 5.4-5.3c1.2-2.4 1.9-4.7 1.9-11V18.6Z" class="Vector"/>
            </g>
            <g class="Group" filter="url(#l)" opacity=".7">
              <path stroke="url(#m)" stroke-width="6" d="M64 18.7c0-6.3-.7-8.7-2-11a13 13 0 0 0-5.3-5.4c-2.4-1.2-4.7-2-11-2H18.3c-6.3 0-8.6.8-11 2A13 13 0 0 0 2 7.7C.7 10 0 12.4 0 18.7V46c0 6.4.7 8.7 2 11a13 13 0 0 0 5.3 5.5c2.4 1.2 4.7 1.9 11 1.9h27.4c6.3 0 8.6-.7 11-2a13 13 0 0 0 5.4-5.3c1.2-2.4 1.9-4.7 1.9-11V18.6Z" class="Vector"/>
            </g>
          </g>
        </g>
        <path fill="#fff" d="M54.2 47.4v-.6a13 13 0 0 1-.1-2.7l-.1-.4v-.3a4 4 0 0 1-.2-1.2v-.6c0-.2 0-.2-.3-.2h-.3l-.7-.1h-.2c0-.1-.3-.2-.8-.2l-.3-.1-.4-.1a6 6 0 0 1-1.5-.2h-.5l-1-.2-1-.1a36.8 36.8 0 0 0-5.5-.5h-.9l-.8-.1h-.8l-.1-.1c0-.1-.2 0-.4 0-.1.1-.2.1-.2 0h-.4a3 3 0 0 0-1.2 0h-.2l-.7-.1a43.3 43.3 0 0 0-2.6-.2 5.2 5.2 0 0 0-1.8 0l-.4-.1h-.4a3 3 0 0 1-.5-.2c-.1 0-.1-.1 0-.1l.6-.3.3-.1.3-.1.5-.2c.2 0 .3-.2.5-.3.3-.3.3-.3.5-.3l.2.1H33.1l.3-.2.3-.2h.2l.3-.2 1-.1.3-.2.3-.1.4-.1.6-.2c.3 0 .5-.2.5-.3l.2-.1.2-.1h.4l.3-.1.4-.1H39.4l.5-.1H41c.3.1.4 0 .7-.3 0-.2.1-.4 0-.4v-.4l-.1-.5V34l-.1-.4-.2-1v-1l-.3-1v-.7l-.1-.7v-.4l-.2-.1-.2-.1h-.2c0-.1-.1-.2-.3-.2h-.4a1 1 0 0 0-.3 0l-.3-.1h-.5l-.3-.1-.6-.1a94.4 94.4 0 0 1-4.8-.4h-.2.2l.2-.2.4-.1.3-.1h.4l.8-.2.5-.2h.3c0-.1 0-.1.1 0h.3l.2-.2h.2l.2-.2.3-.2h.1c0 .2.5.2.8 0h.2l.3-.1.4-.1h.8l.3-.2.4-.2.2-.1h.3c.2.1.2.1.4 0h.3l.2-.1.4-.1H43c0 .2.6 0 .6 0v-.1l.1-.5V24l-.1-.5a21.4 21.4 0 0 0-.3-2.3V20.6a12.2 12.2 0 0 1-.3-1.8V18c0-.2-.1-.2-.2-.2h-.3l-.5.1h-1l-.3.1a1 1 0 0 0-.4 0l-.2.2h-2l-.2.2h-.2c0-.2 0-.2-.3-.1a2 2 0 0 1-.3 0 1 1 0 0 0-.4 0h-1.6c-.2-.2-.4-.2-.8 0h-.6l-.2-.1h-2l-1.2-.1h-.9a10.3 10.3 0 0 1-1-.1h-.3a6.9 6.9 0 0 0-1.4-.2H26l-.1-.1h-.2c0-.1-.3-.2-1-.3a2 2 0 0 1-.4 0c-.1-.2-.3-.2-.4-.2h-.2l-.4-.2-.7-.3h-.1l-.2-.1-.2-.1-.4-.3-.3-.2-.1-.4-.1-.3v-.2L21 15v-.3l-.1-.1V14c-.1-.5-.2-.6-.4-.5l-.3.4v1.6l.1.4.3 1.6a10.1 10.1 0 0 0 .3 2l.1.5.1.5h.1l.2.4.2.2h.1l.1.2.4.2.1.2.3.1h.2l.1.1h.2l.3.1c.1 0 .5 0 .5.2h.3l.2.1h.5l.5.3h.2l.3.1h.8l.1-.2h.6v.1l.2-.1c0 .1.1 0 .2 0h.6l.1.3-.2-.2-.1.1H28v.1l-.2.1-.8.4h-.1l-.2.2-.3.2a2 2 0 0 0-.3.1l-.2.1h-.4l-1 .4-.4.2-.4.2-.3.3H23l-.4.2a1 1 0 0 1-.6.3h-.2l-.2.1-.3.1-.2.1-.1.2-.5.2h-.1l-.6.2h-.1l-.2.2h-.2l-.4.3-.4.2h-.2a1 1 0 0 0-.3.2l-.2.1h-.1l-.1.1s-.2 0-.3.2h-.4c-.4 0-.5.1-.5.4l.2.7.1.4.2.5v.2l.2.5.1.3.3.9v.3l.1.2v.1l.2.5v.3l.2.2V33.6l.2.4.1.5.1.3v.2h.6l.7-.4h.1l.3-.1.2-.1.3-.1h.4l.3-.2h.2c.1.2.3.2.5 0h.8c.3-.3.5-.3.5-.1h1l.2-.2h.3l.4-.2h.5c.1.1.2.1.2 0h.3l.7-.2.4-.1h1.1c0-.1 0-.2.1-.1h.2v.3c-.1.2-.3.2-.4.2-.1 0-.2 0-.2.2l-.3.2h-.2l-.1.1h-.3c-.2 0-.2.1-.3.2l-.1.2-.2.1-.2.1h-.9l-.1.2h-.2l-.8.5-.3.1-.3.2-.5.2c-.4.3-.7.4-.8.3h-.2l-.3.1c-.2.2-.2.2-.3.1l-.7.3h-.2l-.3.2a6 6 0 0 0-.5.2l-.6.2-.4.2-.6.2-.2.1s0 .1-.2 0l-.5.2-.8.2h-.2c0 .2-.2.2-.2.2h-.1l-.4.1a2 2 0 0 0-.5.1l-.6.2-.5.1.1 1.2v.2l.1.4v.4c0 .1 0 .3.2.5l.1.7v.3c.2 0 .2.5.3 1v.5l.1.2.2.7a2.4 2.4 0 0 0 .2.8h.2l1 .1.2-.1c.2-.2.2-.2.6-.2l.9-.1H19v.1h.2l.1.2.2-.2c0-.2 0-.2.2-.2H20c.9-.1 1.4-.2 1.7 0h.3c0-.1.2-.2.4-.1H24l.1-.1h.7l.7.1c.3.1.3.1.4 0H26.7l.2-.2h.4l.4.2.4-.2c.1-.2.2-.1.3.2 0 .2.1.2.3.1h.8c0 .3.3.3.5 0h.4c0-.1 0 0 .1 0 .2.2.4 0 .8-.2.2-.2.3-.2.4 0v.2l.4.1h.7l.3-.1.6-.2.1.1c0 .2.1.2.2.2.2 0 .5-.2.6-.4 0-.2.3-.5.4-.5h.2l.2-.1.2-.1.2-.1v.3c0 .5 0 .5.2.5 0 .1 0 .1.1 0l.3.1v.4l.4-.2.6-.1.4-.1h.2l.2-.1c0-.2.2 0 .3.1 0 .2.1.3.2.3h.1l.1.1.3.2.1.2h.2l.1-.1c0-.2.3-.3.3-.3l.2-.2c.2-.3.4-.4.4-.2 0 .1.1.2.4.3h.5v.2c.2.2.2.2.4.1h.2c.2-.2.4-.2.5-.1l.1.1h.3l.2-.1.3-.2.3-.1c.2-.2.2-.2.2 0h.1l.2.1c0 .1.2.1.4 0 .1 0 .3 0 .3.2l.4.2.3-.3h.2l.1.4c0 .1 0 .2.4.2h1.6c0 .2.1.3.2.2h.2l.1.3.3.1h.2l.2-.1.2-.2h.3l.2.1.4.1h.6l.6.1.2.2h.2l.2.1.2.1h.4l.1.1.5.5v.1l.2.1.2.2c.2.2.4.1.5-.2.2-.2.2-.3.2-.6ZM28.7 22.7Z" class="Vector" clip-rule="evenodd"/>
      </g>
    </g>
  </g>
  <defs>
    <linearGradient id="d" x1="-55.4" x2="130.4" y1="44.7" y2="44.7" class="paint0_linear_3703" gradientUnits="userSpaceOnUse">
      <stop stop-color="#6100FF"/>
      <stop offset=".2" stop-color="#6201FF"/>
      <stop offset=".3" stop-color="#6303FF"/>
      <stop offset=".5" stop-color="#6706FF"/>
      <stop offset=".5" stop-color="#6B0AFF"/>
      <stop offset=".6" stop-color="#7110FF"/>
      <stop offset=".6" stop-color="#7818FF"/>
      <stop offset=".7" stop-color="#801FFF"/>
      <stop offset=".7" stop-color="#8728FF"/>
      <stop offset=".8" stop-color="#8F2FFF"/>
      <stop offset=".8" stop-color="#9637FF"/>
      <stop offset=".9" stop-color="#9C3DFF"/>
      <stop offset=".9" stop-color="#A041FF"/>
      <stop offset="1" stop-color="#A444FF"/>
      <stop offset="1" stop-color="#A546FF"/>
      <stop offset="1" stop-color="#A647FF"/>
    </linearGradient>
    <linearGradient id="e" x1="32" x2="32" y1="64.4" y2=".4" class="paint1_linear_3703" gradientUnits="userSpaceOnUse">
      <stop stop-color="#fff"/>
      <stop offset="1" stop-color="#fff" stop-opacity="0"/>
    </linearGradient>
    <linearGradient id="i" x1="32" x2="32" y1="64.4" y2="32.4" class="paint2_linear_3703" gradientUnits="userSpaceOnUse">
      <stop stop-color="#fff"/>
      <stop offset="1" stop-color="#fff" stop-opacity="0"/>
    </linearGradient>
    <linearGradient id="k" x1="32" x2="32" y1="64.4" y2=".4" class="paint3_linear_3703" gradientUnits="userSpaceOnUse">
      <stop stop-color="#3E1FFF"/>
      <stop offset=".3" stop-color="#6248FF" stop-opacity=".1"/>
    </linearGradient>
    <linearGradient id="m" x1="32" x2="32" y1="64.4" y2=".4" class="paint4_linear_3703" gradientUnits="userSpaceOnUse">
      <stop stop-color="#fff"/>
      <stop offset=".3" stop-color="#fff" stop-opacity=".8"/>
      <stop offset="1" stop-color="#fff" stop-opacity=".2"/>
    </linearGradient>
    <filter id="c" width="731.3" height="624.6" x="-328.1" y="-267.6" class="filter0_f_3703" color-interpolation-filters="sRGB" filterUnits="userSpaceOnUse">
      <feFlood flood-opacity="0" result="BackgroundImageFix"/>
      <feBlend in="SourceGraphic" in2="BackgroundImageFix" result="shape"/>
      <feGaussianBlur result="effect1_foregroundBlur_3703_24550" stdDeviation="136.3"/>
    </filter>
    <filter id="g" width="153.9" height="153.9" x="-44.9" y="-44.6" class="filter1_f_3703" color-interpolation-filters="sRGB" filterUnits="userSpaceOnUse">
      <feFlood flood-opacity="0" result="BackgroundImageFix"/>
      <feBlend in="SourceGraphic" in2="BackgroundImageFix" result="shape"/>
      <feGaussianBlur result="effect1_foregroundBlur_3703_24550" stdDeviation="18"/>
    </filter>
    <filter id="h" width="320.9" height="320.9" x="-128.5" y="-128.1" class="filter2_f_3703" color-interpolation-filters="sRGB" filterUnits="userSpaceOnUse">
      <feFlood flood-opacity="0" result="BackgroundImageFix"/>
      <feBlend in="SourceGraphic" in2="BackgroundImageFix" result="shape"/>
      <feGaussianBlur result="effect1_foregroundBlur_3703_24550" stdDeviation="53.9"/>
    </filter>
    <filter id="j" width="183.8" height="183.8" x="-59.9" y="-59.5" class="filter3_f_3703" color-interpolation-filters="sRGB" filterUnits="userSpaceOnUse">
      <feFlood flood-opacity="0" result="BackgroundImageFix"/>
      <feBlend in="SourceGraphic" in2="BackgroundImageFix" result="shape"/>
      <feGaussianBlur result="effect1_foregroundBlur_3703_24550" stdDeviation="24"/>
    </filter>
    <filter id="l" width="105.9" height="105.9" x="-21" y="-20.6" class="filter4_f_3703" color-interpolation-filters="sRGB" filterUnits="userSpaceOnUse">
      <feFlood flood-opacity="0" result="BackgroundImageFix"/>
      <feBlend in="SourceGraphic" in2="BackgroundImageFix" result="shape"/>
      <feGaussianBlur result="effect1_foregroundBlur_3703_24550" stdDeviation="9"/>
    </filter>
    <clipPath id="a" class="clip0_3703">
      <path fill="#fff" d="M0 0h64v64H0z"/>
    </clipPath>
  </defs>
</svg>
