<svg xmlns="http://www.w3.org/2000/svg" width="151" height="24" fill="none" viewBox="0 0 151 24">
  <path fill="currentColor" d="M111.857 21.66c.021-.012.042-.02.047-.035.014-.032.007-.072-.005-.105-.004-.008-.011-.017-.011-.03 0-.023-.009-.042-.019-.042-.012 0-.021-.072-.021-.18 0-.125-.007-.181-.024-.187-.018-.005.025-.029.045-.072a.147.147 0 0 0-.004-.127.21.21 0 0 1-.017-.086c0-.05.008-.091.021-.091l.003-.003c.02-.035.014-.08.014-.12 0-.022-.01-.037-.016-.037-.012 0-.021-.028-.021-.06 0-.034.008-.063.021-.063.012 0 .019-.114.019-.301 0-.188-.007-.301-.019-.301-.013 0-.021-.036-.021-.081 0-.046.008-.081.021-.081.01 0 .019-.017.019-.04s-.009-.04-.019-.04c-.012 0-.021-.014-.021-.03 0-.014-.009-.03-.02-.034-.011-.004-.026-.07-.033-.143-.007-.074-.02-.136-.029-.136-.011 0-.017-.036-.017-.08a.162.162 0 0 0-.052-.13c-.026-.026-.05-.058-.05-.07 0-.013-.008-.021-.018-.021-.011 0-.026-.023-.033-.05-.007-.028-.021-.052-.031-.052-.009 0-.017-.017-.017-.041a.107.107 0 0 0-.028-.069.335.335 0 0 1-.055-.119c-.014-.051-.034-.092-.042-.092-.009 0-.016-.012-.016-.028s-.014-.034-.03-.04c-.017-.006-.031-.03-.031-.051 0-.023-.008-.041-.017-.041-.008 0-.027-.022-.042-.05-.015-.027-.04-.05-.054-.05-.015 0-.026-.01-.026-.022 0-.011-.011-.034-.026-.05-.055-.058-.074-.088-.074-.1a.234.234 0 0 0-.05-.062c-.027-.029-.051-.064-.051-.08 0-.015-.008-.029-.019-.029s-.02-.011-.02-.026c0-.014-.022-.05-.05-.079-.027-.029-.051-.064-.051-.076 0-.01-.017-.02-.04-.02-.041 0-.201-.145-.201-.18 0-.012-.012-.021-.03-.021a.03.03 0 0 1-.031-.031c0-.037-.077-.108-.115-.109-.014 0-.026-.014-.026-.03 0-.018-.007-.032-.016-.032a.357.357 0 0 1-.125-.108c0-.017-.052-.072-.069-.072a.195.195 0 0 1-.058-.05c-.025-.028-.064-.05-.079-.05-.019 0-.035-.008-.035-.02 0-.011-.013-.02-.029-.02-.017 0-.031-.008-.031-.019 0-.01-.021-.025-.045-.034-.067-.022-.296-.26-.296-.308 0-.022-.01-.04-.022-.04-.012 0-.044-.023-.072-.05a.232.232 0 0 0-.068-.052c-.012 0-.041-.018-.066-.042a.238.238 0 0 0-.1-.051c-.029-.005-.055-.02-.055-.03 0-.01-.018-.016-.041-.016-.044 0-.117-.072-.119-.117 0-.014-.01-.025-.02-.025s-.021-.013-.021-.03-.008-.03-.02-.03-.035-.012-.05-.026c-.061-.055-.087-.075-.101-.075-.007 0-.029-.016-.047-.036a.209.209 0 0 0-.078-.052c-.025-.008-.046-.024-.046-.035 0-.01-.009-.017-.019-.017-.012 0-.047-.023-.078-.051-.028-.027-.065-.05-.079-.05-.013 0-.025-.009-.025-.02 0-.011-.027-.02-.061-.02a.155.155 0 0 1-.109-.049c-.026-.027-.061-.051-.081-.051a.104.104 0 0 1-.062-.025c-.064-.058-.089-.076-.103-.076-.011 0-.035-.022-.055-.05-.021-.026-.055-.051-.074-.051-.021 0-.037-.008-.037-.019s-.011-.02-.023-.02c-.02 0-.029-.01-.124-.092a.338.338 0 0 0-.107-.062c-.025-.006-.048-.02-.048-.03 0-.01-.024-.018-.051-.018-.028 0-.05-.009-.05-.02 0-.028-.051-.08-.079-.08-.012 0-.02-.008-.02-.02 0-.01-.028-.02-.063-.02-.034 0-.065-.013-.072-.03a.057.057 0 0 0-.049-.032c-.021 0-.039-.008-.039-.018 0-.012-.035-.02-.08-.02-.059 0-.081-.01-.081-.03 0-.017-.012-.031-.03-.031-.017 0-.031-.01-.031-.02 0-.011-.017-.02-.04-.02s-.04-.008-.04-.018c0-.017-.097-.043-.247-.076-.029-.007-.055-.02-.055-.03 0-.008-.013-.017-.029-.017-.026 0-.045-.02-.145-.125a.422.422 0 0 0-.153-.1c-.042-.019-.076-.045-.076-.055 0-.012-.017-.02-.04-.02s-.04-.009-.04-.02c0-.01-.022-.024-.052-.03-.027-.007-.05-.021-.05-.032s-.013-.02-.029-.02c-.017 0-.031-.008-.031-.019s-.022-.02-.049-.02a.132.132 0 0 1-.079-.031.124.124 0 0 0-.072-.03c-.022 0-.042-.008-.042-.02 0-.01-.013-.02-.026-.02a.079.079 0 0 1-.054-.03.091.091 0 0 0-.062-.03c-.02 0-.037-.01-.037-.02 0-.012-.014-.02-.031-.02s-.031-.009-.031-.017c0-.026-.162-.083-.237-.083-.035 0-.065-.01-.065-.02 0-.011-.016-.02-.04-.02s-.047-.014-.053-.03c-.007-.017-.029-.03-.051-.03a.112.112 0 0 1-.067-.025c-.066-.06-.09-.075-.109-.075-.012 0-.023-.011-.023-.02 0-.01-.022-.021-.049-.021-.026 0-.05-.01-.05-.02s-.022-.026-.05-.032c-.029-.007-.051-.02-.051-.03 0-.009-.017-.018-.04-.018s-.04-.008-.04-.02c0-.01-.019-.019-.041-.019a.11.11 0 0 1-.072-.031.129.129 0 0 0-.079-.03c-.028 0-.05-.01-.05-.02 0-.011-.019-.02-.044-.02a.154.154 0 0 1-.085-.031.164.164 0 0 0-.086-.03c-.026 0-.044-.008-.044-.02 0-.01-.054-.019-.123-.019-.065 0-.12-.009-.12-.02 0-.01-.022-.024-.05-.033-.027-.005-.05-.02-.05-.03 0-.01-.031-.018-.07-.018-.039 0-.07-.009-.07-.02 0-.052-.06-.08-.169-.08-.062 0-.114-.008-.114-.02 0-.01-.02-.02-.048-.02a.1.1 0 0 1-.072-.03.094.094 0 0 0-.063-.032c-.021 0-.038-.008-.038-.018 0-.012-.018-.02-.04-.02-.022 0-.041-.009-.041-.02 0-.011-.022-.025-.049-.032-.028-.007-.05-.02-.05-.031s-.022-.017-.052-.017c-.027 0-.049-.01-.049-.019 0-.01-.045-.025-.101-.033-.057-.007-.101-.02-.101-.03 0-.012-.031-.02-.07-.02-.039 0-.071-.007-.071-.016 0-.017-.15-.062-.265-.077-.044-.007-.078-.02-.078-.03a.02.02 0 0 0-.02-.019.096.096 0 0 1-.05-.024c-.072-.067-.093-.075-.158-.075-.04 0-.072-.01-.072-.02 0-.011-.031-.02-.07-.02-.039 0-.069.009-.069.02 0 .01-.032.02-.071.02-.038 0-.07-.007-.07-.017 0-.01-.033-.035-.071-.055-.04-.02-.07-.045-.07-.054 0-.008-.011-.016-.022-.016-.012 0-.035-.014-.052-.029a.113.113 0 0 0-.07-.031c-.025 0-.064-.022-.09-.05-.024-.026-.058-.05-.076-.05-.015 0-.032-.007-.036-.015-.013-.033-.136-.087-.195-.087-.035 0-.062-.009-.062-.02 0-.01-.032-.02-.071-.02-.038 0-.071-.009-.071-.017 0-.01-.053-.024-.119-.03a.351.351 0 0 1-.132-.033c-.007-.01-.035-.02-.062-.02-.026 0-.049-.01-.049-.02 0-.011-.019-.02-.04-.02-.022 0-.041.009-.041.02 0 .038-.083.019-.136-.03-.029-.028-.063-.05-.076-.05-.01 0-.03-.017-.043-.036-.017-.028-.057-.04-.14-.05-.065-.007-.12-.022-.125-.032-.004-.012-.027-.022-.055-.022-.026 0-.049-.009-.049-.02 0-.026-.091-.063-.175-.07a.213.213 0 0 1-.11-.048.275.275 0 0 0-.083-.055c-.036-.01-.177.046-.193.078-.02.046-.143-.008-.143-.065 0-.011-.048-.02-.12-.02-.067 0-.122-.01-.122-.02 0-.024-.146-.027-.24-.014a.16.16 0 0 1-.09.043c-.007.008-.011.016-.011.02 0 .032-.07.078-.12.078-.085 0-.123-.05-.123-.157 0-.05.01-.091.02-.091l.004.002c-.027-.015-.053-.027-.078-.044-.029-.018-.055-.04-.082-.06-.033 0-.063-.005-.063-.02 0-.01-.044-.02-.1-.02-.062 0-.11-.011-.128-.03a.129.129 0 0 0-.072-.03c-.028 0-.041-.013-.041-.04 0-.048-.093-.07-.172-.04-.091.034-.306-.012-.315-.07-.005-.037-.022-.04-.17-.045-.16-.007-.164-.006-.177.044-.01.04-.026.052-.082.052-.08 0-.085-.012-.039-.078.031-.044.03-.05-.034-.105-.053-.048-.07-.055-.095-.034-.024.02-.032.02-.04 0-.005-.014-.029-.026-.056-.026-.028 0-.05-.009-.05-.019 0-.011-.018-.02-.04-.02-.022 0-.04.009-.04.02 0 .01-.044.019-.101.019-.057 0-.1-.009-.1-.019 0-.011-.013-.02-.03-.02a.04.04 0 0 1-.036-.024c-.005-.02-.022-.017-.07.002a.197.197 0 0 1-.12.011c-.032-.008-.045-.018-.03-.024.014-.005.024-.022.024-.038s.014-.027.031-.027c.064 0 .026-.041-.051-.054-.044-.007-.08-.02-.08-.03 0-.01-.019-.018-.04-.018-.022 0-.04-.009-.04-.02 0-.01-.037-.025-.081-.032-.045-.008-.081-.022-.081-.031 0-.011-.022-.017-.05-.017-.027 0-.05-.007-.05-.016 0-.02-.117-.086-.152-.086-.016 0-.028-.008-.028-.02 0-.01-.01-.02-.022-.02-.038 0-.47-.4-.47-.452a.126.126 0 0 0-.03-.079c-.016-.017-.03-.042-.03-.051v-.004a.1.1 0 0 1-.017-.017c-.002 0-.002-.002-.002-.002a.02.02 0 0 1-.02-.02l.002-.005c-.022-.036-.028-.081-.022-.122.001-.007.005-.014.007-.02l.006-.135c0-.087.043-.12.186-.141.15-.02.217-.037.217-.059 0-.017.037-.027.246-.064a.381.381 0 0 0 .136-.04c0-.01.035-.017.08-.017.072 0 .08-.005.08-.05 0-.037.011-.05.04-.05.023 0 .065-.023.092-.05.028-.027.07-.05.092-.05.022 0 .038-.01.038-.02 0-.011.018-.02.04-.02.022 0 .044-.008.05-.019.007-.01.04-.024.072-.032.032-.007.059-.02.059-.03 0-.01.031-.029.071-.042.037-.014.07-.038.07-.051 0-.014.012-.026.028-.026a.048.048 0 0 0 .04-.026c.01-.02.015-.02.023 0 .022.044.087.03.101-.025.01-.04.026-.051.074-.051a.14.14 0 0 0 .092-.036.192.192 0 0 1 .099-.05c.065-.013.225-.149.225-.193 0-.011.01-.022.022-.022.014 0 .04-.02.063-.044.028-.031.044-.038.05-.02.011.032.1.032.136 0l.058-.05a.257.257 0 0 1 .123-.026c.05 0 .092-.01.092-.02 0-.011.011-.02.027-.02.035 0 .16-.064.17-.086.004-.008.025-.015.045-.015.02 0 .037-.01.037-.02 0-.012.015-.02.032-.02.016 0 .03-.015.03-.03 0-.02.02-.03.05-.03.028 0 .05-.008.05-.017 0-.027.124-.083.182-.083.033 0 .059-.011.059-.025 0-.036.066-.076.125-.076.031-.002.057-.008.057-.017 0-.017.095-.053.195-.073.036-.01.066-.023.066-.033 0-.011.029-.019.063-.019.046 0 .08-.019.129-.068a.313.313 0 0 1 .079-.071c.007 0 .025-.012.04-.026.068-.06.09-.077.109-.077.011 0 .022-.008.022-.018 0-.012.031-.02.069-.02.037 0 .082-.015.097-.032.017-.016.037-.03.044-.03.022 0 .058-.045.1-.124.032-.066.048-.076.104-.076a.16.16 0 0 0 .045-.005.237.237 0 0 0 .022-.016.022.022 0 0 1 .022-.019c.004 0 .007-.004.012-.005.02-.012.038-.026.057-.04a.92.92 0 0 1 .059-.045c.027-.02.051-.05.051-.067 0-.036.041-.076.096-.095.024-.007.045-.023.045-.032 0-.011.022-.02.05-.02.035 0 .05-.01.05-.037 0-.022.018-.045.04-.052.023-.007.04-.022.04-.033 0-.01.016-.02.036-.02.046 0 .125-.066.125-.106 0-.017.011-.055.022-.082.021-.045.037-.052.119-.052.066 0 .098-.008.107-.03.007-.016.031-.03.053-.03.044 0 .063-.012.152-.095.026-.025.057-.046.069-.046.011 0 .02-.007.02-.017 0-.01.021-.025.045-.033.011-.005.024-.01.034-.016l.057-.054a.048.048 0 0 0 .005-.017c0-.011.022-.042.049-.07.028-.027.05-.06.05-.072 0-.01.013-.02.031-.02.018 0 .031-.01.031-.02s.012-.015.028-.018c.022-.026.042-.052.065-.078.007-.035.02-.065.029-.065.011 0 .017-.022.017-.05 0-.034.012-.05.036-.05.045 0 .105-.068.105-.12 0-.021.014-.04.031-.04s.031-.01.031-.02c0-.008.011-.014.023-.017.034-.05.071-.098.103-.148.025-.04.049-.082.076-.122a.154.154 0 0 0 .004-.03c.001-.047.01-.084.019-.084.01 0 .015-.014.015-.031 0-.016.009-.03.02-.03.01 0 .024-.022.031-.05.007-.027.02-.05.033-.05.01 0 .018-.018.018-.038l.534-.719c.043-.035.049-.057.049-.153 0-.062.007-.112.015-.112.009 0 .025-.02.035-.044.015-.031.041-.048.086-.052a.363.363 0 0 0 .028-.005l.01-.022c.056-.096.12-.198.168-.303a.158.158 0 0 1 .032-.09l.007-.008a.518.518 0 0 0 .017-.065c.006-.04.001-.11-.002-.219a.212.212 0 0 1 .025-.098c.009-.022.021-.042.032-.063.023-.04.053-.066.08-.102.003-.004.004-.011.006-.016l.023-.078.004-.017V2.68c.003-.03.004-.06.005-.089 0-.047.005-.094-.001-.14l-.001-.005-.008-.02c-.008-.018.001-.04-.008-.058-.016-.031-.065-.043-.04-.067.016-.017.057-.02.098-.044.018-.01.033-.026.05-.034.004-.002.008 0 .01-.002.011-.01.012-.028.014-.043.004-.015.002-.031.002-.048 0-.092.056-.196.008-.272-.004-.008-.017-.01-.017-.019 0-.034-.065-.051-.1-.079-.024-.02-.024-.09-.027-.12-.002-.01-.014-.02-.029-.02-.018 0-.029-.01-.029-.021 0-.008.023.018.04 0 .028-.032-.002-.084-.016-.124-.011-.034-.056-.043-.073-.05-.025-.008-.044-.02-.044-.029 0-.02.079-.057-.041-.072-.064-.008-.001-.024-.001-.04 0-.014-.016-.045-.037-.068-.032-.037-.06-.044-.178-.044-.123 0-.141-.005-.175-.05-.022-.027-.055-.05-.076-.05-.021 0-.037-.008-.037-.019 0-.012-.032-.026-.07-.032-.042-.008-.073-.028-.082-.052-.007-.02-.019-.038-.031-.038-.008 0-.006-.018-.016-.034-.019-.025-.054-.053-.084-.044-.011.004-.037.018-.078.018-.045 0-.081-.008-.081-.02 0-.011-.011-.02-.02-.02-.012 0-.035-.012-.05-.026-.062-.055-.089-.076-.102-.076-.007 0-.024-.01-.04-.024-.067-.062-.088-.076-.111-.076-.011 0-.004-.011-.013-.03-.026-.05-.096-.1-.149-.08-.026.01-.058.068-.083.07-.009 0-.016-.01-.016-.021 0-.02-.012-.037-.074-.103-.051-.055-.086-.077-.125-.077-.022 0-.041-.007-.041-.015 0-.009-.043-.033-.096-.055a.596.596 0 0 1-.105-.05.555.555 0 0 0-.101-.051c-.098-.044-.139-.076-.139-.109 0-.011-.015-.022-.031-.022-.017 0-.03-.008-.03-.018 0-.012-.041-.02-.089-.02-.048 0-.092-.009-.096-.018-.004-.008-.032-.021-.067-.027-.053-.01-.07 0-.145.08A.41.41 0 0 0 99.74.2c0 .013-.019.031-.04.038-.022.007-.041.02-.041.031 0 .01-.013.02-.03.02-.016 0-.03.008-.03.018 0 .011-.02.025-.045.033a.191.191 0 0 0-.077.05.174.174 0 0 1-.083.05.216.216 0 0 0-.094.062c-.022.026-.055.049-.072.049-.017 0-.031.008-.031.02a.02.02 0 0 1-.02.02c-.012 0-.043.02-.069.046-.073.07-.108.094-.123.094a.203.203 0 0 0-.06.05c-.025.029-.061.052-.078.052s-.031.009-.031.02c0 .01-.014.02-.03.02-.017 0-.03.01-.03.02 0 .024-.05.08-.072.08-.021 0-.07.056-.07.078 0 .012-.022.022-.05.022-.027 0-.05.008-.05.02 0 .01-.02.024-.044.032a.485.485 0 0 0-.127.101.351.351 0 0 1-.148.1c-.04.008-.062.026-.062.049 0 .03-.103.14-.132.14-.019 0-.069.057-.069.08 0 .012-.01.02-.022.02-.02 0-.037.011-.103.073-.04.038-.076.085-.076.098 0 .016-.053.068-.07.068-.008 0-.026.012-.041.026-.066.06-.09.076-.109.076-.012 0-.02.007-.02.016 0 .009-.046.033-.101.055-.055.02-.1.046-.1.055a.218.218 0 0 1-.045.066c-.026.025-.057.06-.071.073-.043.047-.085.076-.105.076-.012 0-.02.01-.02.022 0 .022-.05.08-.069.08a.73.73 0 0 0-.174.18c0 .01-.022.02-.05.02-.028 0-.05.008-.05.019s-.01.02-.022.02c-.011 0-.035.013-.049.026-.067.059-.089.075-.11.075-.012 0-.02.017-.02.039s-.02.044-.045.053c-.06.02-.096.059-.096.105 0 .035-.042.065-.124.091-.02.007-.045.043-.059.083-.025.062-.034.072-.093.072-.041 0-.068.009-.068.026 0 .015-.022.04-.05.053-.027.016-.05.036-.05.044 0 .02-.049.076-.068.076-.005 0-.064.055-.13.123a.567.567 0 0 1-.152.12c-.022 0-.031.02-.031.07 0 .042-.011.068-.026.07-.013 0-.044.023-.065.052a1.232 1.232 0 0 1-.076.09c-.019.02-.035.052-.035.069 0 .016-.01.03-.022.03a.096.096 0 0 0-.048.025c-.062.055-.09.076-.102.076-.016 0-.068.053-.068.07 0 .017-.114.13-.13.13-.026 0-.072.06-.072.092 0 .02-.022.056-.05.081-.029.026-.052.06-.052.078 0 .016-.017.034-.039.04-.022.008-.04.023-.04.033 0 .011-.027.019-.06.019-.052 0-.063.007-.063.05 0 .027-.007.05-.018.05-.013 0-.02.03-.02.07 0 .062-.008.07-.05.07-.043 0-.05.011-.05.05 0 .027-.01.05-.02.05s-.026.023-.034.05c-.007.028-.02.052-.029.052-.01 0-.018.009-.018.02 0 .028-.052.08-.08.08-.012 0-.02.007-.02.018 0 .01-.02.02-.044.024-.026.005-.05.025-.054.047a.28.28 0 0 1-.075.101.33.33 0 0 0-.07.08c0 .021-.053.071-.077.071-.012 0-.022.01-.022.02 0 .012-.014.035-.03.05-.015.017-.038.03-.05.03-.01 0-.02.013-.02.03s-.01.03-.02.03c-.012 0-.02.014-.02.031a.104.104 0 0 1-.03.063c-.018.018-.03.068-.03.128 0 .055-.009.1-.021.1-.011 0-.02.014-.02.032a.03.03 0 0 1-.031.03c-.016 0-.03.008-.03.02 0 .029-.075.024-.087-.006-.015-.035-.054.022-.054.081 0 .025-.008.045-.02.045-.01 0-.02.022-.02.05 0 .027-.008.05-.017.05-.01 0-.026.018-.033.04a.089.089 0 0 1-.05.05.091.091 0 0 0-.05.05.089.089 0 0 1-.051.05c-.03.01-.04.031-.04.083 0 .038-.008.068-.02.068-.037 0-.08.055-.08.1 0 .023-.014.041-.03.041a.03.03 0 0 0-.03.03c0 .017-.01.03-.02.03-.011 0-.021.04-.021.09 0 .05-.009.092-.019.092-.011 0-.02.037-.02.08 0 .042-.013.093-.031.108-.016.017-.03.036-.03.043 0 .007-.012.026-.025.041-.059.068-.076.09-.076.108 0 .012-.009.023-.02.023-.011 0-.02.018-.02.04 0 .048-.06.159-.084.159-.01 0-.016.02-.016.04 0 .022-.01.04-.023.04-.053 0-.213.166-.228.237-.01.046-.026.065-.053.065-.03 0-.038.016-.038.058a.807.807 0 0 1-.011.12c-.012.06-.02.064-.101.064-.082 0-.088.004-.088.05 0 .028-.007.05-.017.05-.008 0-.03.022-.043.05-.016.027-.04.05-.053.05-.015 0-.027.019-.027.041a.28.28 0 0 1-.03.098.22.22 0 0 0-.016.13c.009.06.005.073-.02.073-.02 0-.033.008-.033.02 0 .01-.046.023-.102.03-.095.014-.1.017-.1.072 0 .033-.008.059-.019.059-.035 0-.082.064-.082.112 0 .027-.01.05-.02.05a.02.02 0 0 0-.02.02c0 .012-.012.035-.026.05-.059.067-.074.09-.074.108 0 .012-.01.022-.02.022s-.026.023-.033.05c-.006.025-.018.044-.028.048a.116.116 0 0 0-.001.043.21.21 0 0 0 .02.065c.007.015.018.024.028.035.02 0 .02 0 .02.025 0 .002 0 .004.002.005l.001.004a.045.045 0 0 0 .022.019c.012.003.017.022.01.04-.016.042.048.116-.004.118-.004 0-.028-.013-.031-.01-.045.017-.062-.034-.104-.053-.037-.019-.073-.008-.085-.008a.371.371 0 0 1-.107-.084c-.074-.074-.086-.099-.093-.19-.006-.06-.017-.108-.028-.108-.008 0-.017-.068-.017-.15 0-.089-.008-.153-.018-.153-.013 0-.02-.016-.02-.04 0-.023.008-.04.02-.04.01 0 .018-.024.018-.051 0-.028-.008-.05-.018-.05-.013 0-.02-.027-.02-.06s.008-.06.02-.06c.01 0 .018-.053.018-.119 0-.072.011-.122.025-.127.013-.003.024-.049.024-.104 0-.051-.011-.105-.024-.116a.109.109 0 0 1-.025-.069c0-.024-.01-.05-.024-.057-.02-.008-.02-.014 0-.022.033-.016.033-.163 0-.176-.018-.007-.013-.02.016-.046.063-.057.072-.103.04-.182-.034-.083-.04-.188-.01-.188.029 0 .024-.096-.006-.104-.018-.008-.018-.02.002-.068.02-.04.02-.06.005-.065-.013-.003-.022-.067-.022-.154a.439.439 0 0 0-.015-.153c-.025-.012-.084-.267-.084-.358 0-.045-.01-.083-.019-.083s-.022-.022-.03-.05c-.006-.026-.022-.05-.031-.05-.01 0-.02-.053-.02-.12 0-.068-.01-.12-.02-.12s-.02-.033-.02-.07c0-.038-.008-.072-.017-.072-.01 0-.024-.022-.03-.05-.008-.027-.023-.05-.034-.05-.01 0-.02-.032-.02-.071 0-.065-.009-.085-.075-.158-.013-.015-.026-.07-.026-.12 0-.05-.008-.092-.016-.092-.011 0-.025-.024-.032-.051-.007-.028-.022-.05-.032-.05-.011 0-.019-.022-.019-.05 0-.027-.01-.05-.02-.05s-.02-.01-.02-.02c0-.024-.012-.038-.126-.163-.042-.045-.077-.1-.077-.12 0-.02-.008-.039-.02-.039-.02 0-.044-.015-.109-.075a.104.104 0 0 0-.044-.024c-.01 0-.034-.022-.055-.05a.112.112 0 0 0-.095-.051c-.032 0-.059-.01-.059-.02 0-.012-.008-.02-.02-.02-.013 0-.037-.013-.053-.03-.02-.021-.072-.03-.16-.03-.072 0-.128-.008-.128-.02 0-.011-.031-.02-.07-.02-.038 0-.072-.012-.077-.026-.005-.016-.071-.03-.177-.04-.177-.013-.85-.029-1.032-.049a1.37 1.37 0 0 1-.088.008l-.098.012H87.9l-.023.004a1.11 1.11 0 0 0-.053.008.316.316 0 0 1-.089.02c-.03 0-.034.024-.034.151 0 .088.009.152.02.152.03 0 .024.094-.005.108-.02.008-.02.014 0 .024.013.006.024.044.024.081 0 .04.014.085.03.101.02.017.03.068.03.13 0 .053.01.097.02.097.013 0 .021.071.021.172 0 .137.005.17.03.17.022 0 .03.022.03.081 0 .043.008.08.02.08.01 0 .02.021.02.05 0 .028.007.05.02.05.01 0 .02.026.02.06 0 .035-.01.061-.02.061-.013 0-.02.027-.02.06s.007.06.02.06c.01 0 .025.022.031.05.007.027.022.05.031.05.01 0 .019.055.019.12 0 .066.009.122.02.122.029 0 .025.095-.006.107-.019.008-.019.01 0 .011.016 0 .026.032.026.078a.24.24 0 0 0 .03.115c.02.028.029.092.03.196 0 .09.01.155.02.155.03 0 .025.12-.005.122-.014 0-.005.01.017.022.046.022.068.102.068.263 0 .052.008.095.018.095.011 0 .024.057.03.126.005.068.018.171.03.227.01.055.021.172.021.261.002.138.007.166.041.191.044.03.055.08.02.08-.01 0-.02.031-.02.07 0 .038.01.07.02.07.012 0 .021.086.021.22 0 .17.007.228.03.25.018.019.03.068.03.13v.101l-.086-.012c-.046-.005-.087-.02-.091-.027-.006-.01-.063-.017-.13-.017-.099 0-.128.008-.16.043-.02.024-.035.055-.035.07 0 .017-.01.028-.02.028-.013 0-.02-.009-.02-.017 0-.01-.135-.022-.3-.029-.193-.007-.315-.02-.34-.037-.035-.02-.055-.02-.109-.002-.043.017-.068.02-.072.005-.003-.01-.052-.02-.105-.02-.054 0-.1-.01-.1-.02 0-.029-.097-.025-.107.006-.005.016-.026.005-.06-.031a.155.155 0 0 0-.114-.056c-.034 0-.062-.008-.062-.02 0-.026-.296-.026-.305.002-.01.03-.281.034-.292.003-.01-.029-.08-.034-.09-.004-.01.03-.767.035-.776.003-.01-.029-.206-.032-.206-.003 0 .011-.081.02-.201.02-.12 0-.202-.008-.202-.02 0-.01-.036-.02-.08-.02-.046 0-.097-.013-.112-.03-.036-.035-.129-.04-.227-.011a.625.625 0 0 1-.208.001c-.157-.02-.197-.011-.197.037s-.058.077-.185.092a.224.224 0 0 1-.193-.068c-.045-.045-.1-.081-.123-.081-.024 0-.043-.01-.043-.02 0-.012-.043-.021-.098-.021a.405.405 0 0 1-.155-.03.272.272 0 0 0-.092-.03c-.02 0-.037-.01-.037-.02 0-.011-.022-.02-.05-.02-.027 0-.05-.008-.05-.02 0-.01-.021-.025-.049-.033s-.051-.02-.051-.03c0-.01-.008-.018-.02-.018-.028 0-.119-.091-.119-.119 0-.011-.014-.02-.031-.02a.03.03 0 0 1-.031-.031c0-.018-.01-.03-.02-.03-.011 0-.02-.033-.02-.07 0-.05-.01-.071-.03-.071-.016 0-.03-.019-.03-.044a.109.109 0 0 0-.03-.068c-.033-.032-.112-.04-.112-.008 0 .01-.022.019-.048.019-.043 0-.153.082-.153.112a.599.599 0 0 1 .06.272c0 .064.008.118.017.121.023.01.086.355.086.467 0 .051.009.092.02.092.011 0 .02.059.02.132 0 .073.009.13.017.13.01 0 .023.077.03.166.009.091.023.17.033.176.016.011.03.152.052.578.008.16.017.207.04.207.024 0 .03.04.03.2 0 .123.008.2.022.205.011.005.021.078.022.193 0 .133.007.196.027.215.015.014.029.055.029.09 0 .035.008.062.019.062s.02.035.02.077c0 .043.013.094.03.11.016.018.03.065.03.11 0 .067.014.095.083.166.066.068.101.086.172.095.048.005.087.017.087.028 0 .01.03.016.07.016.056 0 .07-.008.07-.038a.06.06 0 0 1 .032-.05c.05-.019.147-.015.16.008.016.027.15.027.15 0 0-.01.022-.019.05-.019.028 0 .05.009.05.019 0 .012.023.02.05.02.028 0 .05-.008.05-.02 0-.01.032-.019.07-.019.05 0 .07.009.07.03 0 .041.147.04.188 0a.11.11 0 0 1 .06-.03c.017 0 .034-.006.039-.016a.288.288 0 0 1 .072-.052c.058-.032.067-.032.096-.005.017.017.044.031.06.031s.03.01.03.02c0 .011.022.021.05.021.027 0 .049-.01.049-.02s.019-.02.04-.02c.022 0 .04.01.04.02s.036.02.082.02c.079 0 .079-.002.079-.077v-.076l.146.01c.081.003.15.014.153.025.004.01.037.017.076.017.053 0 .068-.007.068-.037 0-.023.017-.045.04-.053.022-.007.04-.022.04-.032 0-.03.036-.022.08.017.023.019.04.05.04.07 0 .064.058.103.111.08a.433.433 0 0 1 .16-.012c.07.007.111.001.111-.011s.02-.022.044-.022c.046 0 .119-.069.119-.114 0-.019.035-.027.14-.027.078 0 .142.008.142.02 0 .021.076.042.11.028.014-.005.033-.04.04-.079.008-.045.05-.068.124-.068.119 0 .168.03.168.096 0 .026.017.044.05.053.027.007.05.02.05.031 0 .032.194.024.228-.01a.12.12 0 0 1 .07-.03.12.12 0 0 1 .071.03c.017.017.04.03.052.03a.02.02 0 0 1 .02.021c0 .01.033.019.07.019.04 0 .071-.008.071-.019s.022-.02.05-.02a.121.121 0 0 0 .08-.031.133.133 0 0 1 .08-.03c.03 0 .052-.009.052-.02 0-.01.018-.023.04-.03.02-.008.04-.028.04-.044 0-.017.012-.043.026-.057a.26.26 0 0 1 .112-.037.79.79 0 0 1 .222-.083.71.71 0 0 1 .074-.008c.008-.002.018.05.03.05l.005-.053.023-.001c.03 0 .106.055.122.06.068.01.273.137.25.022-.027-.134.115.168.21.263.039.039.076.08.107.125a.154.154 0 0 1 .074.075c.037.006.072.057.072.116 0 .035.008.061.019.061s.02.066.02.158c0 .207.059.735.083.743a.823.823 0 0 1 .018.231c.002.124.011.28.02.346.011.065.025.213.032.327.007.112.02.204.031.204a.96.96 0 0 1 .017.243c0 .132.008.261.02.283.02.036.034.153.072.745.006.086.02.156.03.156.01 0 .02.068.02.15a.758.758 0 0 1-.007.108l.003.024a.498.498 0 0 1-.002.096c.026.004.07.005.146.005.162 0 .17.026.224.047.028.01.06.012.088 0 .033-.014.078-.041.142-.024.042.01.106.024.143.03.035.007.065.02.065.03 0 .01.095.017.211.017.116 0 .212.009.212.018 0 .011.026.024.06.032.033.008.06.022.06.032 0 .011.041.02.09.02.049 0 .092.008.092.018 0 .011.017.02.04.02.033 0 .138.043.183.07.325.034.65.039.974.05.012-.01.035-.012.079-.012.072 0 .09-.01.098-.044.014-.053-.002-.098-.036-.098-.035 0 .008-.063-.001-.086-.004-.007-.024-.014-.046-.014-.033 0-.038-.015-.038-.1 0-.06-.01-.102-.026-.108-.019-.008-.019-.014 0-.034.03-.032.034-.16.009-.16-.011 0-.024-.015-.031-.032-.018-.044-.108-.11-.038-.11.04 0 .06-.01.06-.03 0-.016.009-.03.021-.03.01 0 .02-.041.02-.09 0-.049-.01-.091-.02-.091-.012 0-.02-.023-.02-.05 0-.028-.01-.05-.02-.05-.011 0-.021-.014-.021-.031s.018-.031.04-.031c.023 0 .04-.01.04-.019 0-.012.014-.02.032-.02.02 0 .03-.02.03-.071 0-.038-.009-.07-.02-.07-.011 0-.025-.023-.033-.05-.007-.028-.02-.05-.03-.05-.01 0-.017-.01-.017-.022 0-.012-.016-.037-.033-.054-.024-.024-.03-.053-.019-.113.007-.045.022-.086.032-.09.01-.004.02-.116.02-.256s.007-.25.016-.25c.008 0 .023-.04.035-.087.02-.09.002-.193-.033-.193-.01 0-.018-.035-.018-.08 0-.046-.01-.081-.02-.081-.012 0-.021-.017-.021-.04 0-.019.007-.033.016-.038a.196.196 0 0 1-.006-.068l-.002-.002c-.026-.01-.03-.03-.017-.096.017-.101.048-.138.122-.138.054 0 .168-.096.168-.139 0-.012.011-.02.022-.02.026 0 .08-.052.08-.078 0-.011.01-.026.024-.033.02-.009.02-.014 0-.022-.017-.009-.024-.062-.024-.162 0-.119.005-.148.029-.148.017 0 .031-.01.031-.02 0-.011.017-.02.04-.02s.04-.009.04-.02c0-.011.013-.02.031-.02.019 0 .03.02.03.05 0 .027.01.05.02.05.011 0 .02.04.02.091 0 .05.01.09.02.09s.024-.032.033-.008c.018.062.072.114.083.08.01-.025.92.16.93.186a.253.253 0 0 0 .074.05c.059.031.07.033.095.005.04-.038.702-.038.734 0 .015.017.036.032.052.032s.028.06.028.07c0 .012.046.021.1.021.085 0 .1-.004.1-.037 0-.03.02-.04.095-.049.054-.005.1-.02.103-.032.012-.035.145-.028.145.008 0 .017.008.03.019.03.01 0 .024.019.031.041.012.035.031.04.132.04h.12v.005c.023-.034.068-.041.096-.07.006-.007.005-.02.005-.027 0-.027.008-.05.02-.05l.074.076c.043.04.116.007.175.01.008-.019.022-.013.04.003.031 0 .062.002.093.005l.06.007a.674.674 0 0 1 .047.007c.007.001.02.004.043.006.045.007.087.02.13.032a.04.04 0 0 1 .014-.016c.004-.004.008.005.01.018.005 0 .008.002.013.003 0-.013.003-.021.008-.021.02 0 .016-.014.016.016v.01l.005.004h.01c.002 0 .005.004.009.01l.021.001a.26.26 0 0 1 .072.028l.011.01a.226.226 0 0 1 .041.015l.011.006c.008.006.017.012.024.02.006.006.009.015.013.022.005-.003.008-.003.012.003a.023.023 0 0 1 .004.006c.008-.023.017-.04.03-.04.01 0 .02.012.02.03s.009.031.02.031c.047 0 .016 0-.05.065-.04.037.057.05.057.06 0 .035.018.046.14.055l.125.01v-.112c-.01-.018-.001-.042 0 0 .007.012.02.02.045.013.026-.01.044-.023.044-.033 0-.01.023-.019.05-.019.027 0 .054-.011.059-.026.01-.018.016-.018.025 0a.048.048 0 0 0 .04.026c.013 0 .029.008.032.019.003.011.05.025.1.034.082.011.097.007.097-.02 0-.037.107-.044.141-.016h.006c.011 0 .02.002.029.005.021-.034.065-.022.065.019 0 .022.008.04.02.04.01 0 .045.028.078.061.041.041.08.06.125.06.034 0 .075.011.091.03a.086.086 0 0 1 .019.034c.03.01.06.023.087.042a.047.047 0 0 1 .02-.015c.055-.017.143.01.143.042 0 .044.078.108.131.108.028 0 .05.008.05.017 0 .011.018.024.042.03.05.013.033.053-.024.053-.003 0-.005 0-.007.002l.037.03c-.008-.009.018.012.021.014l.026.017a1.23 1.23 0 0 0 .144.08h.002l.006.003.025.008a.22.22 0 0 1 .08-.013.24.24 0 0 0 .066-.006.54.54 0 0 0 .022-.024c.004-.003.008-.003.01-.007l.002-.003c.007-.022.02-.04.031-.04.035 0 .081-.065.081-.113 0-.035.01-.048.038-.048.02 0 .043-.015.05-.03.026-.07.153-.01.153.072 0 .045.108.158.15.158.015 0 .034.017.04.04.007.02.03.045.052.052.02.007.04.02.04.031 0 .01.014.019.029.019.017 0 .03.007.03.017 0 .01.032.024.071.03.038.008.071.023.071.034 0 .01.012.02.03.02.017 0 .03.007.03.02 0 .01.032.018.072.018.037 0 .068-.008.068-.018 0-.011.076-.023.167-.024.155-.008.167-.011.172-.052.007-.043.064-.068.064-.026 0 .01.017.025.037.03.02.007.055.029.077.05.023.02.09.046.148.054l.11.017.005.11c.004.06.017.118.031.128.017.014.017.02-.001.028-.009.004-.016.017-.021.033.046.042.092.082.138.119.005 0 .011.002.016.004.028.007.056.017.083.026.003-.034.02-.035.119-.035.077 0 .122.01.128.025.007.02.027.02.101 0a.706.706 0 0 1 .143-.025c.027 0 .051-.008.055-.02.004-.01.067-.021.14-.023.116-.005.14 0 .164.032.026.035.022.044-.04.104-.036.035-.068.083-.068.107 0 .036.012.043.088.043.12 0 .155.04.155.188 0 .062.009.113.019.113.011 0 .02.016.02.036 0 .068.073.105.212.105.073 0 .128-.01.128-.02 0-.032.081-.025.116.01.022.022.05.027.103.017.042-.007.077-.02.081-.031.012-.033.065-.016.111.034.036.038.067.05.129.05.046 0 .084.009.084.02 0 .011.028.02.06.02.034 0 .06.008.06.02 0 .01.022.024.05.03.027.008.05.021.05.032 0 .01.022.018.048.018.029 0 .057.017.073.05.015.028.044.05.064.05.02 0 .037.008.037.02 0 .011.031.02.068.02.119 0 .133.013.133.129 0 .079.01.112.04.14.023.018.049.034.059.034.008 0 .021.01.026.024.011.035.26.035.272 0 .017-.053.129-.028.198.046.035.038.075.07.086.07.013 0 .022.013.022.03 0 .018.017.032.039.032s.042.005.046.014c.011.031.143.086.199.086.031 0 .058.009.058.02 0 .01.032.02.072.02.056 0 .07.007.07.04 0 .022.009.04.02.04.01 0 .019.01.019.022 0 .03.112.14.141.14.011 0 .021.008.021.018 0 .011.022.026.049.033.028.007.05.02.05.03 0 .01.05.018.11.018.061 0 .112-.008.112-.02 0-.01.017-.02.04-.02s.042-.011.044-.025c0-.015.008.003.018.04.012.036.03.064.04.064.011 0 .019.011.019.023 0 .027.052.079.079.079.012 0 .021.027.021.06s.01.06.02.06c.011 0 .02.04.02.09 0 .067.008.09.03.09.02 0 .031.02.031.05 0 .032.011.05.029.05.015 0 .031.01.035.02.011.032.262.036.274.006.004-.013.04-.026.079-.026s.084-.014.101-.03c.026-.026.057-.032.146-.021.091.01.122.007.148-.018.041-.04.047-.04.061.02.008.03.026.05.05.05.021 0 .041.007.045.018.003.009.027.023.051.031.033.01.05.006.059-.017.02-.053.088-.04.088.02 0 .035-.011.05-.04.05-.028 0-.041.014-.041.04 0 .022.008.041.02.041.011 0 .021.012.021.03 0 .017.008.03.018.03.012 0 .021.021.021.047a.16.16 0 0 0 .029.084c.017.023.031.06.031.085 0 .026.009.044.021.044.01 0 .018.028.018.06 0 .049.013.062.053.073.027.007.049.022.049.03 0 .011.017.02.04.02.074 0 .123.06.123.154 0 .047.008.086.019.086a.02.02 0 0 1 .02.02c0 .03.05.08.079.08.01 0 .021.009.021.02 0 .01.046.025.103.032.067.01.11.027.123.05.015.025.049.038.088.038.036 0 .077.014.092.03.067.07.077.092.077.13 0 .035.012.041.071.041.037 0 .069.007.069.016 0 .009.046.034.101.055.055.021.101.046.101.055 0 .02.05.077.069.077.029 0 .132.11.132.143 0 .02.009.038.019.038.012 0 .02.013.02.03 0 .016.017.03.044.03.022 0 .071.03.106.068a.393.393 0 0 0 .107.082c.026.008.044.023.044.033 0 .011.014.02.031.02.016 0 .03.008.03.019 0 .01.018.024.04.03.022.008.041.032.041.052 0 .02.01.04.02.04.029 0 .079.05.079.077 0 .014.057.023.152.023.148 0 .152.001.152.05 0 .027.008.05.019.05s.02.015.02.032c0 .016.022.053.05.077.029.026.051.052.051.06 0 .02.054.072.075.072.008 0 .032.023.053.05.023.028.055.05.074.05.019 0 .039.007.043.02.003.01.055.022.115.026.062.003.114.017.119.03.004.012.019.023.036.023.016 0 .027.02.027.042 0 .022.008.04.021.04.01 0 .019.018.019.04 0 .023.023.062.051.088.029.025.05.065.05.09 0 .023.008.043.022.043.028 0 .077.051.077.079 0 .012.011.022.023.022.022 0 .119.09.119.11 0 .017.113.131.13.131.007 0 .036.023.062.05.028.027.061.05.073.05.026 0 .078.051.078.079 0 .011.014.022.031.022s.029.017.029.04.011.04.02.04c.01 0 .021.014.021.03s.009.03.02.03c.036 0 .079.055.079.1 0 .022.011.042.021.042.049 0 .079.059.079.149 0 .08.007.092.046.092.057.002.083.017.114.077.035.064.036.202.002.223-.023.013-.023.023.007.051.018.018.033.046.033.062s.008.028.02.028c.014 0 .021.12.021.322 0 .177.007.321.016.321.032 0 .084.243.084.392 0 .087.008.152.02.152.011 0 .02.015.02.036 0 .079.068.104.292.104.054 0 .174.038.212 0 .02-.02 0-.088 0-.117a.332.332 0 0 0-.022-.14c-.016-.014-.016-.031 0-.062a.59.59 0 0 0 .022-.184c0-.079.009-.14.019-.14.012 0 .021-.033.021-.071 0-.038-.008-.071-.021-.071-.01 0-.019-.022-.019-.05 0-.036.01-.051.038-.051a.059.059 0 0 0 .052-.037c.014-.043-.006-.103-.032-.103-.01 0-.019-.013-.019-.03a.048.048 0 0 0-.024-.04c-.021-.009-.021-.012 0-.023.013-.007.024-.033.024-.059 0-.026.011-.05.026-.055.017-.007.024-.06.02-.195-.003-.146.002-.187.026-.196.034-.013.041-.24.008-.251-.012-.004-.029-.071-.04-.148a5.378 5.378 0 0 0-.031-.202c-.011-.055-.006-.064.058-.1l.009.002ZM96.184 7.425c.036-.04.169-.053.169-.017 0 .009.034.013.088.017a.234.234 0 0 1 .119-.096l.132-.053a.31.31 0 0 0 .024-.011l.004-.002.017-.007c.001-.007.008-.009.018-.009l.031-.013h.002a.026.026 0 0 0 .007-.017c0-.019.019-.03.048-.03.009 0 .017.002.026.004.046-.022.096-.044.143-.072.038-.022.074-.046.112-.07.017-.012.035-.024.051-.038a.095.095 0 0 1 .02-.013c0-.002 0-.002.003-.004.029-.024.055-.053.084-.08.004-.052.013-.082.026-.095.03-.031.02-.092-.019-.117-.043-.03.066-.1.145-.096.04.003.105.003.143.001.059-.001.064-.007.052-.048-.008-.024-.023-.048-.032-.051-.023-.009-.022-.083.002-.083.013 0 .02-.057.02-.125a.47.47 0 0 1 .032-.177.278.278 0 0 0 .03-.094c0-.026.008-.044.02-.044.011 0 .02-.07.02-.173v-.17h.064c.062 0 .198.038.217.062a.225.225 0 0 0 .084.026c.078.013.138-.02.138-.08 0-.015.009-.029.019-.029.032 0 .024-.115-.01-.127-.016-.007-.03-.02-.03-.033 0-.03.112-.08.178-.08.041 0 .064-.013.072-.04.013-.042.05-.058.05-.021 0 .01.033.02.07.02.038 0 .07-.01.07-.02s.023-.02.05-.02c.03 0 .052.01.052.02 0 .022.117.027.168.009.02-.01.033-.038.033-.081 0-.038.01-.069.019-.069.013 0 .02-.013.02-.03a.38.38 0 0 1 .092-.175c.012-.01.01-.015-.005-.015s-.026-.013-.026-.031c0-.018.009-.03.017-.03.01 0 .024-.023.03-.05.008-.028.023-.05.034-.05.01 0 .018-.02.018-.043a.12.12 0 0 1 .039-.076.205.205 0 0 0 .053-.08.205.205 0 0 1 .044-.078c.04-.04.179-.019.226.035.06.07.222.042.222-.038 0-.011.01-.02.02-.02.013 0 .021-.018.021-.04 0-.02.013-.042.03-.049.016-.007.03-.03.03-.053 0-.022.01-.04.02-.04.012 0 .02-.01.02-.022 0-.041.058-.08.12-.08.037 0 .068-.012.074-.029.007-.018.038-.03.077-.03.04 0 .072-.012.08-.025.008-.02.013-.02.024 0 .013.03.168.035.168.005 0-.012.019-.02.041-.02.064 0 .16-.107.16-.179 0-.046.009-.062.045-.065.04-.007.044-.017.04-.103l-.007-.095h.082c.045 0 .081-.009.081-.02 0-.01.017-.02.04-.02.081 0 .101-.02.101-.11 0-.049.007-.094.017-.098.011-.008.024-.04.031-.074.009-.052.019-.06.046-.048.021.009.072.02.118.026.042.005.088.018.096.03.012.018.018.016.027-.001a.045.045 0 0 1 .038-.026c.016 0 .03-.009.03-.02 0-.028.091-.121.119-.121.012 0 .022-.009.022-.02 0-.028.05-.08.077-.08.013 0 .023-.009.023-.018 0-.01.016-.024.04-.031a.086.086 0 0 0 .051-.052c.007-.026.029-.04.064-.04.048 0 .052.005.038.066-.007.036-.02.068-.033.072-.01.003-.018.018-.018.034 0 .017-.009.03-.021.03-.01 0-.018.04-.018.091s-.011.09-.023.09c-.011 0-.015.017-.008.04.005.02.001.043-.009.052-.013.007-.023.048-.023.091 0 .044-.008.08-.018.08-.013 0-.021.021-.021.047l-.884 1.358c0 .022-.01.04-.022.04-.028 0-.079.052-.079.08 0 .012-.009.022-.02.022-.012 0-.043.02-.069.045-.081.075-.108.095-.131.095a.02.02 0 0 0-.02.02.563.563 0 0 1-.18.18c-.011 0-.021.01-.021.022 0 .036-.055.079-.099.079-.023 0-.041.009-.041.02 0 .02-.029.062-.076.105l-.075.07c-.026.024-.062.045-.08.045-.018 0-.053.022-.078.05-.026.027-.057.05-.069.05-.013 0-.024.008-.024.014 0 .01-.03.033-.068.055-.04.02-.07.045-.07.056 0 .038-.06.075-.121.075-.033 0-.063.01-.063.02s-.014.02-.029.02c-.018 0-.03.02-.03.05 0 .028-.01.05-.021.05-.019 0-.043.016-.109.076a.121.121 0 0 1-.07.024c-.022 0-.04.009-.04.019s-.023.024-.05.03c-.028.008-.05.021-.05.032 0 .012-.024.02-.052.02-.027 0-.05.007-.05.015 0 .026-.112.085-.158.085-.024 0-.042.013-.042.03 0 .044-.074.111-.121.111-.024 0-.064.022-.09.05-.024.027-.06.051-.08.051-.03 0-.05.013-.12.074-.016.013-.039.026-.05.026a.02.02 0 0 0-.021.02c0 .011-.022.019-.052.019-.027 0-.05.009-.05.02 0 .011-.022.026-.05.033-.027.007-.049.02-.049.03 0 .01-.012.018-.027.018-.014 0-.039.022-.05.05-.02.044-.035.05-.145.05-.072 0-.12.009-.12.022 0 .028-.052.08-.08.08-.012 0-.02.008-.02.018 0 .012-.014.02-.028.02-.015 0-.04.014-.053.03a.094.094 0 0 1-.064.03.042.042 0 0 0-.015.004l-.019.013s-.004.002-.004.004c0 .005-.01.01-.023.015-.035.022-.069.05-.105.072-.173.101-.36.177-.546.248a.127.127 0 0 1-.072.009c-.004.01-.019.017-.038.017a.11.11 0 0 0-.072.03c-.031.03-.528.04-.587.018a.06.06 0 0 1-.032-.05c0-.02-.01-.038-.02-.038-.011 0-.02-.022-.02-.048a.104.104 0 0 0-.03-.072c-.04-.035.352-.1.393-.145h-.006Zm53.965 6.4c-.017-.016-.029-.055-.029-.087 0-.033-.011-.073-.025-.088a.435.435 0 0 1-.057-.13c-.045-.135-.28-.384-.39-.41a.721.721 0 0 1-.153-.057 3.82 3.82 0 0 0-.424-.184c-.015 0-.04-.016-.058-.038-.017-.02-.129-.06-.251-.086a1.96 1.96 0 0 1-.364-.116 2.855 2.855 0 0 0-.245-.1.354.354 0 0 1-.157-.103c-.092-.126-.332-.224-.637-.257-.168-.018-.386-.09-.427-.141a.182.182 0 0 0-.115-.04.77.77 0 0 1-.197-.043.516.516 0 0 0-.167-.034 1.137 1.137 0 0 1-.257-.063c-.177-.058-.224-.064-.301-.035-.155.056-.285.042-.379-.045-.073-.07-.102-.078-.247-.067a.64.64 0 0 1-.269-.035 1.379 1.379 0 0 0-.185-.061.163.163 0 0 1-.051-.017l-.019-.003c-.033-.008-.066-.013-.099-.02-.012.012-.021.023-.021.035 0 .032-.05-.014-.109-.052a.608.608 0 0 0-.113.003c-.015.023-.027.045-.027.061s-.003-.02-.009-.056c-.056.014-.109.045-.168.04-.002 0-.004 0-.006-.002a.069.069 0 0 1-.035.02c-.092.02-.151-.001-.151-.054 0-.048-.115-.217-.178-.17a.167.167 0 0 0-.055.09c-.015.097-.081.089-.081-.01 0-.104-.065-.14-.151-.087-.051.031-.065.027-.113-.038-.061-.083-.107-.096-.107-.032 0 .058-.103.056-.125-.003-.017-.044-.021-.044-.069 0-.09.08-1.117-.128-1.117-.228 0-.046-.124-.087-.313-.107a.804.804 0 0 1-.245-.06c-.053-.034-.063-.032-.091.025a.333.333 0 0 0-.032.108c-.006.11-.04.255-.059.255-.01 0-.043-.025-.071-.056a.417.417 0 0 0-.165-.088c-.092-.025-.607-.04-.595-.088.029-.106-.113-.212-.313-.236-.167-.019-.174-.018-.228.06a.859.859 0 0 0-.075.136c-.019.051-.021.051-.057 0-.022-.028-.033-.07-.027-.09.019-.048-.1-.09-.189-.066a.409.409 0 0 1-.173-.004c-.126-.028-.189-.01-.209.063-.023.092-.126.07-.147-.031-.023-.107-.124-.176-.247-.164-.067.006-.103.03-.123.072-.017.035-.036.065-.048.065-.009 0-.011.024-.003.054.025.1-.078.097-.181-.004-.051-.051-.094-.107-.094-.126-.002-.073-.082-.06-.116.02-.031.078-.043.08-.174.072-.133-.01-.338-.122-.338-.187 0-.013-.028-.035-.063-.044a.205.205 0 0 1-.08-.042.196.196 0 0 0-.08-.042c-.053-.017-.069-.008-.081.04-.013.046-.04.06-.116.06a.205.205 0 0 0-.169.072c-.075.08-.125.07-.125-.026 0-.087-.051-.133-.147-.133-.081 0-.094.027-.083.16.008.107-.061.135-.208.084a.857.857 0 0 0-.175-.045.4.4 0 0 1-.149-.07.395.395 0 0 0-.232-.072 2.314 2.314 0 0 1-.272-.027c-.109-.018-.149-.016-.174.016-.035.044-.203.03-.343-.033-.13-.058-.21-.052-.21.017 0 .072-.072.074-.131.003-.052-.06-.124-.05-.124.019 0 .056-.179.03-.244-.033-.058-.058-.076-.056-.226.011-.176.08-.505.052-.697-.06a3.465 3.465 0 0 0-.133-.064.365.365 0 0 1-.132-.103c-.036-.052-.065-.06-.139-.05a1.228 1.228 0 0 1-.33-.038c-.166-.038-.255-.044-.305-.027-.124.048-.394.045-.728-.01-.31-.047-.473-.092-.498-.132-.01-.015-.068-.026-.128-.026-.061 0-.117-.012-.126-.025-.008-.014-.126-.031-.262-.042a1.109 1.109 0 0 1-.274-.043c-.017-.017-.06-.015-.108.004-.069.027-.092.021-.141-.02a.125.125 0 0 0-.129-.033c-.042.01-.071.006-.071-.013 0-.051-.063-.098-.203-.151a.487.487 0 0 1-.167-.092c-.02-.023-.085-.041-.146-.041-.061 0-.109-.014-.109-.029 0-.015-.014-.028-.031-.028-.065 0-.337-.142-.428-.226a.571.571 0 0 0-.144-.103c-.055-.019-.166-.215-.166-.293a.125.125 0 0 0-.03-.08c-.017-.017-.033-.196-.037-.416-.006-.364-.011-.393-.076-.461-.088-.094-.171-.096-.171-.002 0 .038-.011.075-.025.083-.013.01-.032.08-.042.159-.012.078-.031.142-.046.142-.023 0-.079.028-.081.326-.002.151-.025.355-.08.356-.018 0-.033.05-.033.117 0 .066-.02.14-.043.164-.033.037-.038.093-.026.24.013.155.006.202-.033.244-.038.045-.05.128-.058.448a7.387 7.387 0 0 1-.027.51 4.085 4.085 0 0 0-.006.942c.029.163.031.292.013.48-.034.336-.032.465.01.566.027.065.027.086 0 .094-.053.017-.042.086.025.157a.862.862 0 0 1 .1.148.41.41 0 0 0 .128.142c.044.031.084.073.084.093 0 .04.107.205.155.24a.21.21 0 0 0 .096.02c.037 0 .105.034.153.072.046.04.115.071.15.071.034 0 .082.02.101.043.038.044.151.053.242.015.005-.002.008-.002.013-.002a.26.26 0 0 1 .067-.031.31.31 0 0 1 .16-.037.86.86 0 0 0 .068-.003c.055-.005.106.005.161.013a.398.398 0 0 1 .161.088c.021.002.04.014.04.03 0 .006 0 .008.003.015l.044.06a.044.044 0 0 1 .008.017.146.146 0 0 1 .027.061c.008.021.013.046.019.07.018.047.05.119.086.189.013.026.027.053.038.08.004.005.006.01.006.013.02.035.04.068.056.105a.439.439 0 0 1 .052.142c.028.259-.013.83-.012.925.006.24-.006.265-.149.338-.055.028-.076.02-.166-.06a.84.84 0 0 1-.157-.207c-.113-.232-.196-.358-.31-.47a.588.588 0 0 1-.117-.139c0-.011-.03-.038-.069-.057a.2.2 0 0 1-.085-.106c-.009-.036-.03-.067-.046-.067l-.225-.256c-.112-.111-.201-.228-.201-.257 0-.031-.012-.055-.025-.055-.015 0-.038-.037-.053-.079a.544.544 0 0 0-.093-.15 1.698 1.698 0 0 1-.128-.17 1.966 1.966 0 0 0-.197-.237c-.071-.074-.131-.162-.131-.192a.217.217 0 0 0-.057-.119.345.345 0 0 1-.075-.132 1.049 1.049 0 0 0-.128-.226.71.71 0 0 1-.109-.193c0-.022-.01-.039-.023-.039-.035 0-.12-.207-.12-.293 0-.048-.015-.076-.042-.076-.027 0-.043-.027-.043-.068a.656.656 0 0 0-.069-.209c-.044-.086-.065-.162-.053-.202.011-.043-.006-.094-.043-.148a.286.286 0 0 1-.056-.19c.003-.114-.027-.197-.207-.557a1.091 1.091 0 0 1-.111-.308.172.172 0 0 0-.067-.14c-.05-.038-.067-.084-.071-.17a.616.616 0 0 0-.048-.206.458.458 0 0 1-.043-.167.434.434 0 0 0-.041-.166c-.031-.061-.047-.226-.056-.67-.015-.6-.056-1.02-.108-1.087-.017-.02-.036-.14-.042-.268a.85.85 0 0 0-.056-.299c-.056-.082-.032-.316.046-.475.034-.073.044-.128.028-.155-.03-.056-.105-.582-.096-.694.002-.043.022-.092.042-.103.03-.02.03-.043.005-.117a.711.711 0 0 1 .012-.448.422.422 0 0 0 .025-.189c-.012-.048 0-.08.044-.11.05-.034.056-.06.043-.14-.025-.128-.134-.192-.324-.192-.08 0-.152-.014-.162-.029-.008-.017-.042-.028-.073-.028-.03 0-.065-.02-.073-.043-.019-.056-.094-.056-.094.002 0 .033-.017.04-.065.025-.117-.037-.222-.1-.222-.135 0-.02-.013-.011-.03.016-.035.06-.092.064-.14.006-.044-.054-.132-.055-.153-.004-.017.046-.278.033-.383-.018-.053-.025-.073-.024-.089.006-.02.03-.054.03-.178.002a.505.505 0 0 1-.186-.075c-.026-.036-.033-.035-.048.002-.018.051-.162.06-.21.011-.019-.018-.108-.03-.204-.028-.092.002-.178-.008-.187-.021-.008-.016.025-.07.072-.121.146-.154.256-.314.256-.37 0-.028.009-.053.023-.053.015 0 .032-.04.042-.088.031-.154-.048-.24-.371-.397a1.747 1.747 0 0 0-.348-.14.402.402 0 0 1-.154-.056.776.776 0 0 0-.213-.073.318.318 0 0 1-.168-.078.349.349 0 0 0-.274-.111.213.213 0 0 1-.136-.05.402.402 0 0 0-.205-.067.81.81 0 0 1-.234-.062.393.393 0 0 0-.142-.044c-.061 0-.247-.063-.443-.15a1.076 1.076 0 0 0-.233-.072c-.058-.006-.108-.025-.108-.038 0-.014-.051-.025-.115-.025-.063 0-.112.013-.112.028 0 .017-.033.029-.077.029-.091 0-.409.32-.496.498a1.08 1.08 0 0 1-.164.228.697.697 0 0 0-.142.233.534.534 0 0 1-.073.157.884.884 0 0 0-.1.152l-.086.153c-.013.023-.04.094-.059.158-.043.139-.15.366-.179.377-.01.006-.019.031-.019.058 0 .055-.108.373-.142.416a.447.447 0 0 0-.041.124.434.434 0 0 1-.075.167.264.264 0 0 0-.056.108.77.77 0 0 1-.06.167.587.587 0 0 0-.053.195.502.502 0 0 1-.055.203 1.242 1.242 0 0 0-.08.306c-.01.093-.03.175-.043.183-.011.008-.023.042-.023.076 0 .035-.019.1-.042.144a.543.543 0 0 0-.043.207c0 .07-.01.124-.023.124-.033 0-.094.324-.109.584a1.8 1.8 0 0 1-.058.363.4.4 0 0 0-.02.214c.01.042.017.09.012.105-.052.162-.081.567-.1 1.347-.009.366-.025.68-.036.695-.018.032-.018.065.005.388a.587.587 0 0 1-.013.215c-.013.015-.012.08.003.141.014.063.027.215.027.341.004.416.075 1.202.113 1.25.023.028.04.203.028.328-.001.023.01.137.027.253.015.117.02.224.012.239-.008.015 0 .035.018.046.019.012.046.106.062.21.015.107.046.238.069.294.023.056.051.174.061.262a.538.538 0 0 0 .056.197.14.14 0 0 1 .038.087c0 .048.067.25.11.339.015.027.048.1.074.163.092.205.267.532.301.553a.631.631 0 0 1 .082.129c.174.326.638.83.857.93.318.145.394.172.529.178.216.012.398.042.71.12.158.037.395.087.527.107.289.046.506.094.584.128.031.013.126.032.212.042a.84.84 0 0 1 .209.047c.113.06.743.097.882.051.094-.031.105-.046.105-.128 0-.05.02-.108.043-.126.025-.02.045-.05.045-.068 0-.044.101-.159.137-.159.018 0 .031-.023.031-.051a.48.48 0 0 1 .071-.163.502.502 0 0 0 .072-.186c0-.04.018-.097.038-.128a.448.448 0 0 0 .042-.183c.001-.08.019-.134.048-.149a.103.103 0 0 0 .044-.08c0-.073.084-.17.147-.17.04 0 .052-.024.052-.111a.27.27 0 0 1 .044-.16c.042-.04.042-.055.01-.114-.028-.053-.028-.085-.003-.134a.968.968 0 0 0 .046-.246c.006-.1.025-.195.042-.212a.12.12 0 0 0 .031-.073c0-.025-.115-.091-.054-.147.113-.103.153-.228.087-.267-.039-.025-.037-.167.003-.205.025-.025.179-.05.123-.101-.093-.088-.093-.117.003-.179.047-.03.065-.055.043-.063-.042-.013-.046-.138-.006-.163.017-.01.028-.061.028-.116 0-.055.014-.098.029-.098.015 0 .041-.053.059-.119.017-.068.063-.182.101-.259.058-.11.067-.16.052-.263-.015-.098-.01-.127.021-.127.045 0 .106.067.159.171.08.16.144.257.209.312.038.03.058.056.045.056-.014.002.019.063.074.136.054.074.117.17.138.212.056.111.316.49.343.502.013.006.023.02.023.033 0 .031.262.408.292.421.011.006.021.027.021.048 0 .022.018.056.04.079a.246.246 0 0 1 .051.094c.006.03.039.067.071.082a.314.314 0 0 1 .117.125.97.97 0 0 0 .142.197.48.48 0 0 1 .092.123c0 .011.03.055.066.091.123.136.196.224.324.398.071.098.139.182.149.19.01.008.063.071.117.143.055.069.148.178.205.24a.49.49 0 0 1 .108.14c0 .018.046.089.103.16.047.058.086.162.148.208.051.038.115.056.175.083.095.044.198.07.302.085.113.015.231.022.345.04.059-.001.118 0 .175.007a.217.217 0 0 1 .136-.012l.074-.007a.098.098 0 0 1 .071-.016c.189.028.385.016.574.02h.117l.01-.006.056-.03a.653.653 0 0 1 .187-.075l.035-.007.018-.002.019-.003c.049-.007.097-.014.146-.016a.433.433 0 0 0 .214-.165c.034-.045.026-.063-.071-.163-.102-.103-.125-.113-.257-.113-.163 0-.184-.017-.307-.23-.066-.114-.071-.14-.04-.22.019-.05.042-.255.055-.255.031 0 .023-.29-.009-.398-.02-.06-.02-.106-.002-.128.063-.08.066-.29.005-.426-.002-.004-.002-.01-.003-.016a1.212 1.212 0 0 1-.037-.14c-.012-.067-.019-.134-.053-.193-.026-.044-.055-.078-.069-.123a.225.225 0 0 1-.037-.046 1.062 1.062 0 0 1-.084-.19c0-.019.046-.021.122-.01.1.015.138.006.198-.04a.273.273 0 0 1 .109-.058c.019 0 .056-.02.083-.042.044-.04.061-.038.166.02a.49.49 0 0 1 .096.059.416.416 0 0 1 .157-.029h.025a1.43 1.43 0 0 1 .375-.084c.138-.013.155-.006.209.06.059.074.203.103.239.046.011-.017.042-.015.088.005.059.027.078.021.137-.043.055-.057.098-.074.227-.08.146-.006.166 0 .247.083.092.098.199.117.255.048.019-.023.048-.043.065-.043a.295.295 0 0 0 .101-.057c.094-.075.244-.054.343.046.038.038.084.067.103.067.02 0 .094-.046.167-.103.11-.084.14-.096.176-.067.042.034.166.044.351.028.053-.005.104.006.115.022.01.015.066.036.124.047.06.01.108.032.108.047 0 .03.178.036.21.006a.586.586 0 0 1 .303-.073c.031.008.075 0 .096-.019a.082.082 0 0 1 .093-.008l.149.073c.157.08.323.092.434.03a.784.784 0 0 0 .11-.07c.023-.032.257-.062.257-.033 0 .015.024.055.057.088.07.074.226.086.226.016 0-.055.124-.033.299.05.12.056.271.071.271.025 0-.017.043-.028.095-.028.065 0 .112-.024.164-.081a.345.345 0 0 1 .18-.103c.098-.019.119-.01.201.067.07.068.115.086.204.086.063 0 .128-.013.144-.03.025-.024.059-.018.132.028.131.08.347.084.396.003.031-.046.067-.056.224-.056.134 0 .201-.011.226-.042.044-.054.083-.054.192.001.058.029.101.08.121.143a.246.246 0 0 0 .116.142c.075.038.093.038.167-.002a.456.456 0 0 1 .169-.043c.088 0 .232-.044.259-.08a.712.712 0 0 1 .097-.073l.083-.052.098.116c.086.105.608.118.714.118.083 0 .141-.019.182-.058.054-.048.063-.05.063-.012 0 .075.075.128.184.128.056 0 .102-.01.102-.023 0-.01.026-.036.059-.056.052-.033.065-.028.117.035.064.083.193.098.252.03.023-.028.916.123 1.029.123.119 0 .167-.012.178-.042.027-.065.117-.052.148.02a.137.137 0 0 0 .078.074c.056.01.221-.055.221-.088 0-.033.056-.025.097.015.02.02.045.083.055.14.012.056.035.116.055.132.043.033.257 0 .319-.051.049-.042.101-.017.101.051.038.039.274.08.33.094.266.068.402.092.427.077.019-.01.05.02.075.067a.497.497 0 0 0 .051.088c.002.002.111.012.24.025.179.017.245.035.285.08.068.078.332.179.466.179.063 0 .113.013.113.03 0 .015.063.091.141.169.139.136.144.14.282.123a.376.376 0 0 1 .232.03.485.485 0 0 0 .124.046c.048 0 .182.132.23.227.06.113.133.151.228.115.08-.031.143-.01.229.076.026.027.088.07.138.096.048.027.094.071.099.102.012.067.088.14.176.167a.566.566 0 0 1 .169.126c.09.094.266.2.331.2.025 0 .054.039.159.216.052.086.052.091-.001.157a.026.026 0 0 1-.005.005c.005.005.011.01.013.015.007.01.01.02.01.032a.053.053 0 0 1-.002.032l-.003.015c-.002.018-.002.036-.002.054.032.043.032.062.003.098a.51.51 0 0 0-.056.212.527.527 0 0 1-.046.199.148.148 0 0 0-.031.091.515.515 0 0 1-.04.158c-.044.107-.031.377.022.42a.354.354 0 0 0 .121.044c.128.028.255-.102.273-.28.008-.071.048-.2.09-.282a.713.713 0 0 0 .075-.235c0-.046.026-.133.056-.196a2.31 2.31 0 0 0 .144-.559c0-.027.018-.055.042-.063.027-.011.042-.055.042-.116 0-.062.017-.11.05-.127.042-.024.044-.047.019-.202-.028-.165-.026-.179.03-.224.062-.048.138-.2.127-.249-.01-.042.028-.353.063-.51.034-.154.124-.371.162-.394.014-.008.027-.075.027-.15.002-.094.017-.14.05-.159.033-.018.042-.048.03-.096a.181.181 0 0 1 .012-.12c.061-.117.086-.673.03-.726l-.007.008ZM122.787 8.08c-.041.087-.043.12-.014.223a.96.96 0 0 1-.056.513c-.035.079-.093.496-.104.753-.014.3-.022.38-.043.413a.998.998 0 0 0-.038.213.736.736 0 0 1-.046.217.567.567 0 0 0-.029.21c-.002.113-.018.195-.042.22-.022.021-.04.086-.041.144-.001.115-.027.247-.096.497a1.4 1.4 0 0 0-.045.29c0 .068-.014.128-.033.134-.02.007-.04.09-.047.195a.777.777 0 0 1-.037.213.683.683 0 0 0-.043.199c-.017.156-.08.348-.128.382a.398.398 0 0 0-.02.156 1.12 1.12 0 0 1-.036.256c-.016.063-.04.165-.048.227a.988.988 0 0 1-.096.264.623.623 0 0 0-.081.258.505.505 0 0 1-.037.176.534.534 0 0 0-.043.171.667.667 0 0 1-.032.156c-.04.097-.117.373-.117.422 0 .05-.049.062-.098.025-.049-.034-.126-.213-.144-.333a.556.556 0 0 0-.076-.195c-.045-.064-.049-.087-.02-.104.031-.019.029-.053 0-.188-.027-.12-.029-.168-.005-.176.037-.012.043-.091.008-.091-.014 0-.032-.11-.04-.243-.008-.132-.032-.261-.051-.284-.028-.033-.028-.05 0-.084.019-.023.024-.057.013-.076a1.078 1.078 0 0 1-.071-.329c.001-.035-.011-.07-.027-.08-.034-.021-.037-.204-.004-.225.014-.008.032-.088.042-.178.012-.122.007-.175-.024-.21-.038-.04-.035-.061.029-.18a.573.573 0 0 0 .071-.268c0-.102.014-.146.061-.185.053-.048.059-.072.044-.241-.011-.139-.005-.204.025-.245a.292.292 0 0 0 .041-.15c0-.052.02-.135.046-.184a.301.301 0 0 0 .028-.195c-.011-.073-.005-.116.019-.13.04-.026.125-.37.148-.593.007-.078.027-.206.045-.284a2.83 2.83 0 0 0 .034-.44c.001-.202.014-.317.041-.355a.373.373 0 0 0 .04-.157c0-.055.019-.125.042-.155a.237.237 0 0 0 .042-.123.17.17 0 0 1 .044-.11c.032-.034.038-.078.024-.182a.5.5 0 0 1 .005-.19c.026-.059.031-.082.056-.292a1.06 1.06 0 0 1 .041-.213c.023-.059.067-.221.119-.435a.572.572 0 0 1 .124-.22.48.48 0 0 0 .113-.204.492.492 0 0 1 .072-.172c.029-.037.047-.083.04-.104-.019-.047.037-.091.176-.137.098-.033.116-.032.147.008a.277.277 0 0 1 .031.128c0 .047.018.131.042.189.044.105.038.222-.013.222-.014 0-.008.035.015.078.068.126.116.396.086.47-.028.066-.025.487.006.696a.345.345 0 0 1-.032.223l-.003-.001Z"/>
  <path fill="currentColor" fill-rule="evenodd" d="M45.928 17.17a2.492 2.492 0 0 0-.021-.284 5.948 5.948 0 0 1-.048-.479c-.02-.295-.021-.398 0-.51.025-.116.023-.152-.006-.225a.565.565 0 0 1-.033-.172c0-.048-.01-.12-.02-.163a1.788 1.788 0 0 1-.066-.519c0-.128-.012-.26-.022-.296-.02-.065-.024-.067-.14-.068-.064 0-.123-.01-.13-.02-.017-.026-.155-.046-.285-.044-.056.002-.107-.008-.117-.021-.014-.022-.134-.052-.347-.081a.535.535 0 0 1-.137-.035.582.582 0 0 0-.18-.036c-.37-.037-.547-.062-.568-.081a.28.28 0 0 0-.116-.02 1.44 1.44 0 0 1-.234-.03 4.902 4.902 0 0 0-.411-.062c-.15-.02-.343-.042-.431-.055a16.504 16.504 0 0 0-.864-.094 15.343 15.343 0 0 0-.348-.02 1.245 1.245 0 0 1-.246-.035.173.173 0 0 0-.132.006c-.058.021-.08.021-.101.002-.031-.032-.106-.032-.138 0-.02.02-.038.02-.073 0a.93.93 0 0 0-.321-.05.272.272 0 0 1-.117-.015c-.017-.012-.05-.012-.078 0a.168.168 0 0 1-.106-.004 2.104 2.104 0 0 0-.373-.023c-.249 0-.333-.008-.385-.033-.061-.03-.076-.031-.124-.006-.043.025-.065.025-.094.006a.253.253 0 0 0-.117-.026c-.041 0-.073-.01-.073-.022 0-.033-.06-.023-.15.027-.074.042-.089.043-.11.015-.015-.017-.048-.027-.076-.023a.177.177 0 0 1-.096-.019c-.056-.03-.382-.017-.525.023-.095.027-.104.025-.133-.013-.025-.036-.06-.042-.297-.046a19.946 19.946 0 0 0-.358-.006c-.05 0-.09-.008-.09-.016 0-.01-.063-.017-.14-.02a.49.49 0 0 1-.163-.027c-.027-.026-.259-.026-.277 0-.018.03-.13.027-.141-.005-.008-.021-.253-.046-.595-.056-.012 0-.102.003-.2.008-.102.005-.183 0-.191-.012a.502.502 0 0 0-.18-.032 1.294 1.294 0 0 1-.215-.032c-.056-.02-.065-.082-.011-.082a.6.6 0 0 0 .268-.11.304.304 0 0 1 .153-.057c.04 0 .101-.022.141-.048a.803.803 0 0 1 .19-.086.577.577 0 0 0 .24-.154c.116-.108.126-.113.205-.101a.6.6 0 0 1 .132.036c.036.019.055.019.071 0a.11.11 0 0 1 .06-.027c.017 0 .063-.026.1-.06a.437.437 0 0 1 .147-.087.296.296 0 0 0 .1-.053c.012-.014.08-.033.148-.039.335-.03.385-.038.454-.069a.503.503 0 0 0 .117-.08.231.231 0 0 1 .128-.058c.044-.006.134-.025.197-.041.065-.02.176-.045.249-.06.12-.023.237-.092.237-.142 0-.01.035-.037.08-.056l.111-.054a.58.58 0 0 1 .144-.018.346.346 0 0 0 .166-.035.34.34 0 0 1 .151-.04.304.304 0 0 0 .118-.015.597.597 0 0 1 .152-.015 1.57 1.57 0 0 0 .223-.021c.137-.029.455-.012.557.028.117.048.177.019.296-.15.056-.077.065-.195.016-.195-.025 0-.032-.034-.032-.178a.514.514 0 0 0-.02-.19c-.012-.007-.02-.06-.02-.117a.54.54 0 0 0-.025-.162 1.684 1.684 0 0 1-.062-.463c.002-.064-.005-.11-.018-.11-.015 0-.023-.062-.023-.154a.508.508 0 0 0-.019-.174c-.02-.02-.056-.224-.086-.504a3.693 3.693 0 0 0-.042-.274 1.54 1.54 0 0 1-.019-.3c.002-.05.03-.154.008-.2-.011-.019-.056-.036-.074-.05a.284.284 0 0 0-.12-.049.105.105 0 0 1-.07-.033c-.018-.02-.065-.03-.136-.03a.722.722 0 0 1-.204-.033.452.452 0 0 0-.134-.028.503.503 0 0 1-.136-.022.55.55 0 0 0-.203-.011c-.083.01-.115.005-.128-.017-.012-.02-.102-.038-.29-.055a40.74 40.74 0 0 1-.485-.046l-.297-.029a.372.372 0 0 0-.141.014c-.045.017-.07.013-.111-.014-.042-.026-.063-.03-.096-.011-.033.017-.06.017-.102 0-.055-.022-.306-.042-.697-.052a.697.697 0 0 1-.232-.034l-.053-.029.051-.01a.24.24 0 0 0 .105-.057c.043-.04.078-.05.169-.05.08 0 .12-.01.138-.033.017-.023.069-.036.18-.043.227-.011.358-.03.358-.053 0-.033.164-.103.242-.103a.278.278 0 0 0 .116-.021c.029-.016.048-.012.071.011.04.042.048.04.113-.011.03-.022.08-.04.115-.04.033 0 .061-.012.061-.024 0-.01.017-.02.038-.02.023 0 .063-.026.086-.057a.392.392 0 0 1 .108-.082c.056-.024.061-.022.061.015 0 .08.194.08.333-.002a.282.282 0 0 1 .102-.042c.017 0 .03-.008.03-.021 0-.012.056-.02.124-.02.085 0 .133-.01.15-.033.036-.042.122-.04.13.006.006.03.01.03.038.003.022-.02.093-.036.19-.044.088-.008.162-.023.166-.037.019-.056.107-.126.157-.126.03 0 .078-.01.108-.025.042-.018.067-.015.13.015.067.03.09.032.165.01a.576.576 0 0 0 .128-.055.183.183 0 0 1 .088-.03c.026 0 .053-.008.06-.021.009-.014.055-.016.12-.008.075.011.11.006.123-.012.011-.017.026-.019.055-.005a.371.371 0 0 0 .132.021c.05 0 .1.013.108.027.026.041.273-.02.273-.067 0-.012.015-.019.031-.019.029 0 .033-.04.033-.227 0-.124-.013-.26-.025-.299a1.682 1.682 0 0 1-.042-.253 9.69 9.69 0 0 0-.081-.682c-.002 0-.006-.065-.01-.142-.005-.095-.019-.153-.042-.176-.021-.024-.03-.056-.021-.1a.677.677 0 0 0-.01-.182 5.54 5.54 0 0 1-.073-.59 2.804 2.804 0 0 0-.03-.234c-.011-.061-.017-.138-.011-.166a.563.563 0 0 0-.007-.146c-.015-.086-.025-.097-.08-.1a.334.334 0 0 0-.135.03.66.66 0 0 1-.199.04c-.07.003-.17.014-.222.026-.092.021-.147.013-.174-.025-.01-.013-.033-.013-.071.004a.43.43 0 0 1-.146.026.478.478 0 0 0-.162.033l-.108.053c-.051.025-.172.022-.199-.006-.035-.033-.484-.025-.537.013-.023.016-.056.024-.072.02-.017-.007-.047 0-.067.018a.245.245 0 0 1-.113.044c-.067.014-.078.01-.086-.03-.014-.04-.021-.043-.105-.028a.943.943 0 0 1-.179.013.436.436 0 0 0-.144.017.122.122 0 0 1-.09.003c-.019-.011-.057-.01-.093.002-.047.015-.068.013-.096-.01-.048-.041-.21-.06-.272-.03-.04.018-.075.014-.165-.016-.116-.04-.176-.036-.36.017-.065.019-.117.023-.14.012a.38.38 0 0 0-.13-.02c-.052 0-.101-.007-.105-.019-.022-.032-.413-.04-.567-.008-.117.025-.16.027-.196.006a.298.298 0 0 0-.15-.012c-.198.027-.468.002-.507-.044-.02-.025-.034-.027-.084-.006a.146.146 0 0 1-.119.001.842.842 0 0 0-.209-.021 4.64 4.64 0 0 1-.276-.02.621.621 0 0 0-.178.002.242.242 0 0 1-.132-.003 3.086 3.086 0 0 0-.52-.04.354.354 0 0 1-.108-.012 1.257 1.257 0 0 0-.206-.023.769.769 0 0 1-.203-.028.11.11 0 0 0-.067-.024c-.023 0-.055-.01-.067-.023-.024-.023-.167-.053-.5-.107a.918.918 0 0 1-.16-.035.27.27 0 0 0-.167-.065.275.275 0 0 1-.101-.018 1.3 1.3 0 0 0-.142-.054c-.21-.073-.309-.112-.332-.136-.011-.015-.04-.024-.058-.024-.019 0-.05-.017-.07-.04a.206.206 0 0 0-.098-.052.452.452 0 0 1-.161-.103 1.183 1.183 0 0 0-.146-.12c-.048-.031-.06-.068-.053-.152a.043.043 0 0 0-.029-.046c-.02-.006-.03-.038-.03-.078a.27.27 0 0 0-.024-.106.474.474 0 0 1-.025-.148c0-.057-.011-.109-.02-.116-.009-.005-.016-.042-.016-.08s-.006-.076-.014-.083c-.008-.006-.016-.048-.019-.092-.012-.192-.048-.247-.142-.222-.042.011-.121.15-.121.212 0 .023-.005.046-.012.054-.023.024-.033.442-.01.455a.492.492 0 0 1 .037.18c.006.092.02.178.03.19.033.042.1.433.127.724.013.157.03.3.034.317a.613.613 0 0 1 .019.112.451.451 0 0 0 .028.115.91.91 0 0 1 .033.172c.006.077.021.167.031.201.01.033.029.14.042.232.013.094.038.178.055.19.019.014.03.038.03.056 0 .02.038.075.085.125a.39.39 0 0 1 .084.117c0 .013.023.025.053.025.042 0 .054.01.054.053 0 .052.084.117.157.117.017 0 .052.028.076.063.042.055.056.06.12.05.057-.01.078-.006.103.03.018.025.04.04.05.035.01-.006.047.002.082.02.044.023.076.026.116.011.063-.023.244.03.244.073 0 .037.048.052.103.038a.138.138 0 0 1 .091.02c.072.046.204.066.24.036.04-.03.213.033.23.088.01.031.032.04.108.037.058-.004.103.006.113.021.011.021.036.025.076.013a1.03 1.03 0 0 1 .188-.021c.033-.002.063.006.08-.004.025-.013.045-.046.081-.07.083-.062.22-.057.227.01.002.014-.01.026-.005.034.008.01.025-.014.041-.022.042-.023.085-.036.095-.03.011.006-.01.024.003.036.014.013.043-.017.085-.02a1.97 1.97 0 0 1 .252-.002c-.004.017.011.05.061.108.017.019-.05-.013-.056-.031-.005-.015-.028-.029-.05-.029a.1.1 0 0 0-.063.029c-.015.019-.036.031-.05.031-.013 0-.03.013-.038.03-.006.017-.03.03-.051.03l-.383.163c.008.017-.04.038-.055.052a.375.375 0 0 0-.063.074.39.39 0 0 1-.134.067.897.897 0 0 0-.136.056c-.027.034-.106.066-.118.048-.015-.029-.128-.029-.145 0-.008.011-.035.02-.058.02-.05 0-.26.078-.452.168a1.17 1.17 0 0 1-.153.063c-.01 0-.023.006-.027.015a.72.72 0 0 1-.123.104c-.063.047-.127.1-.143.118-.022.026-.065.036-.17.036-.118 0-.145.006-.187.05a.413.413 0 0 1-.272.119.24.24 0 0 0-.122.031.16.16 0 0 1-.081.03.25.25 0 0 0-.108.05.533.533 0 0 1-.109.065c-.025.008-.05.03-.055.053-.017.058-.116.115-.2.113-.037-.002-.068.006-.068.015 0 .023-.184.084-.257.084-.031 0-.061.008-.068.02a.146.146 0 0 1-.07.032.263.263 0 0 0-.09.042 1.522 1.522 0 0 1-.18.106c-.08.044-.152.088-.158.097-.008.012-.052.027-.096.033a.424.424 0 0 0-.148.061.235.235 0 0 1-.109.05c-.027 0-.046.01-.046.022 0 .011-.019.02-.038.02a.354.354 0 0 0-.128.067c-.08.056-.102.063-.194.055-.138-.014-.186.025-.19.153-.003.1.039.267.079.317a.667.667 0 0 1 .061.182c.019.084.048.179.063.21.017.032.03.073.03.092.002.02.01.042.02.048a.55.55 0 0 1 .055.17c.02.087.043.156.055.156.01 0 .019.015.019.03 0 .03.04.173.096.35a.67.67 0 0 1 .031.161c0 .037.01.071.025.077.015.003.027.03.028.057.004.092.035.211.052.201.017-.011.043.09.043.167 0 .029.013.065.03.081.017.017.03.055.03.083 0 .03.012.056.024.06.011.005.033.08.043.165.013.093.038.18.06.215a.24.24 0 0 1 .043.142v.086h.137c.077 0 .138-.011.138-.021 0-.022.259-.148.303-.148a.144.144 0 0 0 .067-.03.236.236 0 0 1 .105-.034c.033 0 .075-.01.09-.025a.391.391 0 0 1 .146-.042c.067-.008.155-.023.199-.03.043-.006.09-.024.104-.042.031-.039.053-.035.103.015.052.05.128.053.215.006.05-.025.098-.031.184-.021.107.011.123.008.19-.048.108-.093.218-.103.238-.02.012.04.1.058.1.02 0-.01.067-.019.15-.017.107 0 .156-.008.185-.035a.13.13 0 0 1 .073-.035c.02 0 .034-.008.034-.018 0-.01.045-.025.1-.033.11-.015.217-.055.217-.078 0-.01.013-.017.03-.017.019 0 .032.008.032.021 0 .01.023.02.053.02.027 0 .075.01.106.026.036.016.06.017.067.004a.346.346 0 0 1 .131-.044c.065-.012.2-.04.303-.062a.71.71 0 0 0 .217-.066c.023-.025.053-.027.16-.007.208.037.282.032.319-.023.026-.034.038-.04.063-.018.023.018.08-.03.073.003l-.029.125-.006.015a.158.158 0 0 1-.134.09c-.061 0-.103.036-.103.09 0 .019-.014.037-.031.037-.02 0-.06.02-.088.042a.208.208 0 0 1-.098.043.121.121 0 0 0-.07.021c-.01.012-.062.025-.114.027-.08.003-.098.011-.124.07-.022.045-.047.068-.077.068-.025.002-.061.025-.08.055-.029.043-.047.052-.081.042a1.069 1.069 0 0 0-.178-.023c-.111-.005-.144.004-.207.045a.502.502 0 0 1-.088.053.339.339 0 0 0-.086.055c-.075.058-.19.115-.363.188a.667.667 0 0 0-.128.064.482.482 0 0 1-.124.062 1.009 1.009 0 0 0-.22.114c-.165.106-.31.146-.377.108-.03-.022-.047-.023-.053-.006-.005.014-.03.024-.06.024a.18.18 0 0 0-.104.053c-.06.06-.075.063-.108.03-.015-.015-.033-.011-.061.017-.091.092-.212.14-.27.107-.027-.016-.046-.008-.085.032a.338.338 0 0 1-.14.078c-.05.013-.165.053-.25.088a2.665 2.665 0 0 1-.233.078.397.397 0 0 0-.201.103c-.021.027-.146.063-.26.08a.14.14 0 0 0-.081.052c-.025.036-.048.044-.098.036-.061-.01-.13.005-.236.048-.048.019-.33.084-.366.084-.013 0-.05.024-.08.052-.03.028-.073.053-.093.053-.02 0-.042.008-.046.017a.51.51 0 0 1-.179.033.858.858 0 0 0-.228.044c-.035.017-.15.05-.259.072a.681.681 0 0 0-.214.067c-.03.045.015.552.048.532.01-.005.019.039.019.096 0 .058.011.14.03.178a.392.392 0 0 1 .019.16.517.517 0 0 0 .046.242.73.73 0 0 1 .058.299c0 .113.008.157.03.172.039.022.074.211.079.422.002.084.012.137.03.144.014.003.025.044.025.091s.006.08.019.08c.023 0 .041.09.065.311.01.094.032.203.05.242a.803.803 0 0 1 .044.114c.011.04.028.047.114.045.156-.002.38.017.395.033.031.03.084.01.147-.062.064-.069.073-.073.242-.082.244-.017.312-.025.41-.052.11-.028.116-.028.116.01 0 .025.015.031.071.02.042-.009.077-.006.085.008.008.013.028.016.044.011.02-.008.031 0 .031.019 0 .03.043.056.085.056.011 0 .036-.035.057-.08.031-.067.048-.079.115-.083.052-.005.08.002.08.017 0 .017.02.02.058.01.377-.096.634-.11.727-.054.067.04.108.037.168-.015.026-.023.07-.028.178-.018.406.038.443.038.523.003a.408.408 0 0 1 .125-.033.118.118 0 0 0 .07-.024c.02-.02.04-.02.087.01.043.026.106.036.217.034.083 0 .222.013.308.034.148.035.157.035.176.002.015-.026.046-.036.11-.036l.208.002c.067.001.121-.007.121-.017 0-.014.038-.025.085-.033.046-.008.084-.025.084-.035 0-.011.013-.02.03-.02.02 0 .033.007.033.016 0 .034.126.09.207.09.067 0 .1-.014.151-.067.077-.078.103-.065.136.071.025.101.08.124.165.073a.468.468 0 0 1 .18-.035c.12-.003.13-.002.15.05.036.092.158.096.256.006a.21.21 0 0 1 .08-.05c.02 0 .049-.01.07-.018.021-.01.052.003.083.034.07.071.178.042.343-.1.105-.089.15-.092.167-.009a.227.227 0 0 1 0 .093c-.018.046.033.064.182.067.075 0 .164.01.195.019.047.011.07.005.113-.035a.217.217 0 0 1 .142-.053c.145-.007.255-.03.28-.062.02-.026.03-.02.053.045.026.071.033.078.096.066a.341.341 0 0 0 .23-.183c.035-.068.172-.188.217-.188.01 0 .033-.015.051-.033.004-.002.008 0 .014.002l.03-.015a.077.077 0 0 1 .058-.023l.016-.025c0 .046.047.035.103-.021.029-.029.06-.054.07-.054.019 0 .02.012.026.148.012.207.016.222.058.249.031.02.05.02.067.005.042-.043.1-.025.1.031 0 .027.007.051.02.051.01 0 .02.025.02.052 0 .029.008.056.022.065.02.013.147-.044.147-.07 0-.044.13-.087.26-.087.095 0 .146-.012.168-.033.018-.017.067-.03.109-.03.041 0 .073-.012.073-.022 0-.055.08-.01.134.077a.351.351 0 0 0 .096.107c.02.006.048.027.063.042.015.017.038.021.048.015.025-.017.106.065.101.103-.006.063.006.078.077.078.046 0 .078-.011.086-.03a.046.046 0 0 1 .041-.032c.017 0 .029-.01.029-.023 0-.028.086-.1.12-.103.014 0 .052-.037.083-.08.096-.134.178-.174.178-.091 0 .047.052.092.156.137.056.023.09.027.105.012.03-.03.117-.027.117.005 0 .013.021.053.05.088.042.053.057.06.124.046a.366.366 0 0 0 .129-.055c.061-.05.18-.058.195-.013.007.018.038.042.071.053.05.017.068.012.106-.021a.18.18 0 0 1 .096-.04c.058 0 .154-.043.154-.067 0-.01.015-.019.03-.019a.223.223 0 0 0 .093-.053c.077-.063.083-.063.092-.005.005.036.021.046.067.048.033.002.068.018.078.038.025.044.072.044.148 0 .08-.048.166-.012.166.068 0 .067.077.105.151.073a.456.456 0 0 0 .176-.115c.023-.035.03-.031.071.038a.33.33 0 0 1 .046.14c0 .066.012.072.175.096a.341.341 0 0 0 .164-.014c.046-.02.07-.02.093-.002.019.02.055.02.12.004.111-.023.31.002.337.043.037.061.07.08.1.055.046-.043.088-.031.088.025 0 .02.024.067.056.104.042.054.076.07.128.072.039.001.077-.007.085-.017a.407.407 0 0 1 .098-.071c.046-.03.09-.056.094-.065.03-.04.1-.04.138.002.02.02.05.041.064.041.014 0 .03.014.037.029.008.023.048.026.167.02a.448.448 0 0 1 .205.014c.027.015.053.017.061.006.02-.032.196-.019.265.018.037.02.083.056.103.08a.14.14 0 0 0 .088.045c.027 0 .053.015.06.03.008.022.042.032.126.032.076 0 .123.01.14.031a.094.094 0 0 0 .064.031c.052 0 .21.154.21.205 0 .029.02.048.052.056.03.007.056.025.056.042 0 .015.03.055.072.086.104.079.171.055.252-.097.055-.102.06-.131.058-.29l-.007-.005ZM34.445 5.973h.002l.002.002-.004-.002Z" clip-rule="evenodd"/>
  <path fill="currentColor" d="M.919 10.027c.017.022-.041.084-.056.126-.02.055-.052.053-.05.117 0 .055-.048.095-.083.139-.016.024 0 .093-.028.1-.038.011-.394.982-.386 1.021l.015.053c.02.046-.015.088-.023.127-.005.03-.01.06-.046.07-.034.2-.106.387-.165.58.005.008.01.018.009.027-.002.023-.018.039-.033.055a2.04 2.04 0 0 0-.036.15l-.007.042a.17.17 0 0 0 .034.068c.021.026.017.062-.007.088-.013.014-.036.017-.04.033-.015.08-.017.041-.01.13 0 .01.001.06-.007.067-.002.024.033.002.031.027.02.002-.007-.006.001.007.019.032-.016.069-.024.1-.015.057-.005.077.044.106.02.013.002.02.007.043a.164.164 0 0 1-.019.122c-.013.024-.004.121.02.14.03.021.033.047.026.08-.006.028-.025.058-.015.085.014.041.09.043.1.088.005.024-.045.04-.035.067.02.054.068.013.096.05.009.012.003.018.002.02-.003.01.042.017.036.026-.035.057-.035.08.022.12a.065.065 0 0 1 .02.023c.03.052.09.093.095.162 0 .013-.032.035-.024.066.014.053.08.079.125.103a.098.098 0 0 1 .054.065c.02.057.033.117.065.166.058.085.12.17.19.246.06.065.131.156.125.233l.034.033h.008l.003.006.003.012a.447.447 0 0 1 .034.05.08.08 0 0 0 .035.01c.03.003.057.02.072.064.02.051.046.113.118.129.013.003.022.018.03.029-.006.019-.013.035-.013.04.031.017.062.024.078.044.046.059.088.121.134.179.08.105.149.222.246.314.03.028.015.063.036.088.059.074.116.15.173.226.01.013.018.031.025.046.02.046.053.061.098.047.002.007.006.015.004.022-.015.055-.01.101.05.13.012.006.013.03.022.043.02.036.038.08.068.105.048.038.107.058.167.09 0 .01-.007.038.004.051.022.026.05.05.08.064.042.019.074.04.078.088l.068-.019c-.002.023-.006.041-.009.062l.016.007c.007 0 .011.003.014.008.061.033.12.07.177.113.018-.012.037-.023.051-.02a.181.181 0 0 0 .093-.002c.02.033.033.06.048.09l.056-.026c.03.019.05.031.07.041.062.03.123.057.185.088a.06.06 0 0 1 .026.026c.037.06.092.07.153.067.012-.001.028-.003.038.002.06.033.116.078.19.069.005 0 .01.003.013.009.026.038.068.036.108.042.007.002.017-.002.022.002.04.035.08.066.136.043.006 0 .011.009.017.01.037.017.072.045.11.048.069.01.124.041.177.081l.066.052a9.24 9.24 0 0 0 .08-.057c.042.015.073.03.106.04.036.009.072.038.11.003.005-.003.019.006.03.007.02.004.042.004.065.008l.08.012c.016.005.03.02.047.022.076.007.151.013.226.014.018.001.04-.01.057-.02.04-.02.075-.05.127-.027.01.006.029-.002.04-.009.025-.015.045-.033.067-.05.037-.025.052-.022.072.014.033.06.11.093.173.072a.082.082 0 0 0 .044-.037c.013-.029.028-.051.066-.053.012 0 .024-.009.034-.013l.116-.069c.013.035.019.066.036.087a.285.285 0 0 0 .142.104.112.112 0 0 1 .04.025l.445.008a.191.191 0 0 0 .086-.08c.035-.06.098-.054.13.007.025.042.068.077.094.064.055-.03.147-.016.147-.116 0-.005.01-.015.014-.017.05-.018.038-.058.033-.088.033-.036.068-.06.084-.096.03-.064.086-.1.141-.115.087-.022.175-.06.269-.031.038.01.022-.019.048.023-.031.013-.015.065-.055.08.024.026.041.046.06.064.111.091.128.079.221-.014 0-.013.05-.012.09-.014l.038.042c.014-.015.024-.031.037-.04.013-.012.03-.018.048-.025.062-.027.075-.024.121.031.011.013.028.019.043.026l.122.057c.018.009.04.022.06.02a.128.128 0 0 1 .1.024.14.14 0 0 0 .076.022c.137-.044.275-.087.412-.128.032-.022.071-.041.096-.072.035-.043.064-.039.102-.006.018-.034.04-.062.05-.091a.078.078 0 0 1 .038-.052.214.214 0 0 0 .042-.042c.035-.043.068-.043.105 0a.41.41 0 0 0 .116.098l.192-.06a5.67 5.67 0 0 0 .13-.14c.013-.014.022-.034.02-.049-.005-.062.035-.079.083-.082.033-.074.038-.072.112-.081.033-.004.064-.028.094-.04-.008-.06.037-.05.064-.047.041.005.069-.013.098-.033.043-.031.086-.06.127-.093.022-.017.053-.037.055-.057.006-.046.039-.05.066-.045a.17.17 0 0 0 .122-.024c.034.048.06.1.1.136.042.04.078.105.157.08.013-.004.03.005.041.01.028.013.052.033.08.041a.164.164 0 0 1 .06.03c.113-.055.226-.108.34-.162.048-.039.094-.081.16-.095.013-.003.026-.022.035-.036.012-.017.018-.037.027-.052l.095.01c-.01-.052-.02-.095-.024-.14a.076.076 0 0 1 .02-.053c.068-.08.114-.078.184.003l.01.005c.04-.017.08-.036.092-.088.004-.012.017-.022.026-.032.012-.016.027-.032.033-.049a.181.181 0 0 1 .123-.132c.01-.003.019-.009.028-.012.033-.017.051-.041.04-.081-.007-.02-.01-.043.013-.062.043.053.08.104.12.152.071-.027.135-.034.2.02.023.016.05.027.08.035l.16-.081c.123-.064.245-.137.368-.209.009-.03.03-.058.041-.087.008-.02.032-.02.052-.005l.03.02c.128-.073.26-.141.395-.197a.42.42 0 0 0 .136-.107.044.044 0 0 1 .018-.01c.059-.021.082-.06.068-.114.027-.048.068-.05.119-.041.06.01.122.022.156-.052.004-.009.02-.012.03-.02.02-.019.042-.037.055-.06.013-.032.026-.06.064-.068.017-.002.03-.019.044-.03l-.009-.054c.059-.017.078-.087.142-.095.005 0 .012-.015.015-.026.012-.027.03-.04.064-.042a.178.178 0 0 0 .086-.036c.064-.045.062-.047.119.001a.165.165 0 0 1 .027.03c.047-.028.081-.002.112.029.026-.02.045-.043.069-.053a.118.118 0 0 0 .077-.078c.01-.03.028-.053.064-.058.024-.004.048-.013.07-.02a.184.184 0 0 1 .127 0c.039.012.076.02.092.068.007.018.03.034.044.05.026.022.16.04.175.014.024-.032.03-.075.044-.115.002-.002 0-.005 0-.009v-.186c-.022-.016-.052-.025-.06-.044-.023-.053-.054-.105-.026-.169.005-.01-.002-.036-.013-.046a10.028 10.028 0 0 0-.192-.202l.006-.04a.373.373 0 0 1-.095-.08c-.05-.006-.063-.046-.076-.088-.005-.017-.007-.04-.019-.046a.12.12 0 0 1-.048-.083c-.024-.03-.048-.058-.07-.087-.11-.138-.237-.286-.35-.44a1.452 1.452 0 0 1-.16-.257l-.038-.045c-.044-.005-.112-.038-.122-.068-.027-.08-.051-.165-.072-.23l-.1-.107c-.049-.05-.082-.115-.146-.15a.661.661 0 0 1-.084-.05c-.045-.035-.103-.065-.081-.131-.057-.057-.101-.112-.09-.195.005-.03-.01-.05-.03-.074a.627.627 0 0 1-.097-.132c-.035-.066-.086-.091-.147-.057-.036.02-.067.052-.104.07-.043.024-.05.069-.078.102-.05.06-.104.119-.158.178-.051-.03-.101-.02-.141.015-.041.039-.092.072-.109.133a.1.1 0 0 1-.05.055c-.056.026-.1.055-.108.123 0 .008-.012.014-.018.02a.57.57 0 0 1-.064.056c-.01.007-.02.017-.031.017-.095-.006-.155.053-.214.114-.022.023-.042.04-.072.023-.064-.034-.123-.007-.174.024a.389.389 0 0 1-.178.05.485.485 0 0 0-.122.035c-.043.013-.085.031-.127.046-.043.015-.086.028-.127.044-.063.026-.103.092-.18.085-.01 0-.018.009-.026.013-.037.024-.07.052-.109.072-.033.017-.05.04-.051.078l-.002.04c-.059.033-.109.072-.175.076-.015.002-.031.017-.045.027-.04.028-.08.043-.128.028-.026-.009-.047-.004-.072.009a.786.786 0 0 1-.162.075c-.057.016-.088.047-.101.1-.013.048-.017.098-.039.143-.025.055-.04.12-.101.162-.035-.019-.067-.041-.105-.057a.29.29 0 0 0-.093-.024.656.656 0 0 0-.215.022.223.223 0 0 0-.109.06.155.155 0 0 1-.05.03c-.027.012-.06.015-.082.033a.142.142 0 0 1-.091.024.86.86 0 0 0-.197.022c-.022.004-.036.04-.055.064l-.007.004c-.05.04-.11.068-.169.097-.027.015-.051.038-.08.053-.014.01-.037.023-.045.017-.064-.033-.112.006-.16.02-.03.076-.06.147-.043.214-.038.046-.066.093-.103.122-.038.03-.088.046-.129.067l-.005.085-.101.002-.023.06c-.018-.01-.03-.022-.046-.028-.027-.008-.068-.025-.079-.015-.036.04-.079.019-.117.024-.007.017-.013.03-.019.048-.051-.029-.084-.013-.115.026-.024.031-.062.038-.094.013-.044-.034-.084-.042-.125-.001-.08-.064-.211-.007-.294.07l-.066-.069c-.003 0-.012 0-.018.002-.06.017-.135-.007-.175.066-.005.007-.024.01-.034.007a.12.12 0 0 0-.114.03c-.013.012-.036.013-.055.016a.181.181 0 0 0-.138.072c-.024.033-.05.05-.088.048-.046-.002-.079.01-.084.068l-.256-.03a1.5 1.5 0 0 0-.052.074c-.029.046-.06.055-.113.052-.05-.004-.102.005-.153.012-.007 0-.017.013-.019.02a.26.26 0 0 0-.01.065c0 .046-.017.06-.06.048a.103.103 0 0 1-.036-.017c-.042-.035-.082-.024-.127 0-.017.008-.044.018-.062.013-.057-.019-.1-.004-.122.035-.04.003-.073.005-.103.01-.058.011-.113.028-.172.033a.218.218 0 0 0-.12.045c-.027.022-.067.048-.097.046-.058-.005-.115-.031-.177-.048-.046.034-.103.04-.167.03a.133.133 0 0 0-.121.03c-.039.033-.078.063-.12.096-.01-.005-.027-.017-.044-.02a4.75 4.75 0 0 0-.224-.052.153.153 0 0 0-.057.002c-.06.013-.11.06-.178.052-.03-.004-.054.027-.059.06-.002.015.002.031 0 .046-.004.055-.043.083-.094.064-.019-.007-.035-.02-.053-.033-.078.022-.153.02-.22-.038-.025-.02-.049-.009-.078.002a.663.663 0 0 1-.124.024c-.017.002-.038-.009-.051-.002-.043.024-.083.01-.125.002-.037-.007-.08-.015-.112-.002-.063.024-.126.005-.186.009-.05.002-.098-.05-.157-.017-.007.004-.022-.012-.034-.013-.06-.013-.12-.052-.179 0-.012-.007-.018-.014-.027-.017-.078-.024-.148-.076-.24-.045a.13.13 0 0 1-.123-.018c-.022-.019-.064-.033-.091-.026-.057.013-.094-.004-.118-.043-.125 0-.242.002-.352-.053-.039-.019-.083-.024-.124-.038-.033-.013-.064-.03-.096-.041-.024-.01-.046-.015-.075-.024a.236.236 0 0 1-.147-.086l-.129-.229c-.022-.084-.17-.404-.167-.49.005-.154.04-.614.04-.614a.715.715 0 0 1 .007-.195c.009-.055.026-.119-.015-.177-.017-.025.005-.066.038-.079h.003c0-.033.003-.068.01-.1a2.13 2.13 0 0 1 .184-.86 3.18 3.18 0 0 1 .423-.737c.045-.058.11-.102.146-.17.04-.079.012-.175.041-.238a.134.134 0 0 1 .062-.056c.025-.014.037-.054.05-.083.012-.03.007-.075.036-.09.027-.013.057.018.081.013a.063.063 0 0 1 .048.008l.04-.042a.05.05 0 0 1-.008-.012c-.013-.028-.004-.056.019-.077.025-.023.04.003.06.012l.004.002.065-.06a.246.246 0 0 0 .023-.094c.002-.041.035-.065.077-.067.006 0 .014 0 .02.002a1.28 1.28 0 0 1 .28-.378l.003-.018c.016-.05.078-.077.133-.11.051-.031.116-.012.152-.07.014-.02.015-.053.037-.064.034-.016.079.037.112.017.047-.03.022-.105.07-.129.072-.037.095-.115.151-.165a.24.24 0 0 0 .062-.085c.02-.05.056-.087.102-.062.016.01.012.054.042.059.026.003.037-.03.054-.043.038-.028.073-.074.115-.079a.147.147 0 0 0 .11-.07.277.277 0 0 1 .13-.103.193.193 0 0 0 .099-.088c.02-.038.053-.054.093-.059.031-.003.064-.003.09-.015.051-.025.105-.03.161-.038.007-.001.015-.003.02-.01.014-.014-.002-.047.02-.063.065-.047.12-.044.15-.112.023-.05.06-.093.092-.14.017-.025.044-.056.074-.04.066.03.1 0 .127-.05.003-.007.01-.013.015-.013.067-.005.067.04.11-.002.025-.025.057-.043.077-.076.002-.002.002-.005 0-.01-.029-.106 0-.14.11-.15.06-.005.069-.034.095-.077.028-.047.073-.06.1-.086.032-.032.086-.042.104-.007a.157.157 0 0 0 .013.02c.096-.077.197-.146.296-.221-.003-.005-.01-.01-.015-.015-.035-.032-.036-.064-.033-.107.006-.068.024-.1.085-.123a.808.808 0 0 0 .115-.063c.017-.01.015-.048.047-.04.02.006.04.02.06.03.02.009.047.036.071.038l.045-.038c.025-.04.041-.072.096-.08h.004c.051-.04.105-.076.163-.109a1.83 1.83 0 0 0 .14-.088c0-.004 0-.008.003-.01.01-.012.035-.028.043-.022h.002c.09-.063.178-.128.27-.19.024-.055.084-.07.122-.112.018-.02.039-.036.05-.062.018-.045.111-.11.158-.101.072.013.134-.024.201-.03.013-.001.03-.013.03-.02.005-.064.046-.07.096-.07.009 0 .018-.01.027-.013.03-.017.06-.013.088-.023.15-.051.221-.226.346-.324.009-.007.021-.012.028-.02.025-.034.046-.069.071-.102.006-.007.028-.009.037-.005.014.006.026.013.038.011a.178.178 0 0 0 .074-.035c.009-.007.013-.019.018-.03.004-.007.017-.01.016-.022-.002-.02-.038-.023-.041-.042-.001-.006 0-.014.007-.019.01-.008.024-.006.036-.009.038-.006.076-.004.1-.042.003-.006.013-.008.02-.01.063-.01.125-.014.19-.022.05-.007.102-.01.13-.067.016-.032.048-.045.084-.028a.134.134 0 0 0 .105.006.059.059 0 0 1 .052.013c.024.028.045.027.072.005.012-.01.03-.013.048-.017.073-.017.155-.01.21-.075.005-.006.018-.006.027-.009.03-.008.057-.02.086-.028.019-.005.042-.016.059-.012.059.013.102-.002.14-.051.026-.037.062-.054.113-.043a.103.103 0 0 0 .116-.055c.05-.104.173-.108.242-.184.01-.01.035-.002.052-.006a.16.16 0 0 0 .062-.018c.031-.024.058-.055.088-.083.014-.013.035-.03.05-.03.076.004.159-.03.23 0l.04-.012c-.006-.012-.012-.024-.002-.036.024-.028.068-.006.1.004l.07-.022.006-.006c.022-.028.046-.062.077-.07.04-.01.03-.05.069-.072.027-.017.056.016.082.024.024.008.048.025.07.022.06-.005.114-.045.18-.033.075.014.116.007.154-.064.022-.042.027-.04.077-.024a.4.4 0 0 0 .125.022c.072 0 .14-.023.214-.04.07-.018.1.012.144.027l.07-.015c.005-.004.01-.009.016-.009a.555.555 0 0 1 .039-.002 2.69 2.69 0 0 1 .167-.023l.002-.002c.016-.015.028-.039.046-.046.034-.014.075.01.107-.003.075-.03.151.001.225-.006.014-.001.033.01.041.019.027.032.057.023.09.013.026-.007.053-.017.079-.025.031-.011.062-.011.086.015.026.028.059.03.096.029a.31.31 0 0 1 .094.02c.031.011.058.029.088.041.026.011.059.014.077.031a.45.45 0 0 0 .18.116c.027.007.046.037.068.06.037.038.095.064.107.116.015.067.056.091.057.148 0 .006.003.013.002.015-.032.058.03.067.046.12.016.048.007.08.038.113.031.034.059.07.088.107.037.046.08.066.14.048.044-.014.1-.006.128-.03.045-.034.008-.094.008-.14l.003-.014c0-.013-.002-.028-.009-.035-.039-.038-.026-.073-.002-.106.023-.032.024-.06.002-.094-.032-.049-.06-.098-.094-.145a.3.3 0 0 1-.064-.174.14.14 0 0 0-.035-.088c-.042-.055-.088-.108-.108-.178a.474.474 0 0 0-.066-.155.285.285 0 0 1-.057-.17c-.001-.08-.095-.123-.09-.203.002-.019-.01-.04-.018-.057-.024-.044-.059-.083-.077-.129-.038-.094-.086-.187-.087-.292 0-.007-.01-.015-.017-.022a.356.356 0 0 1-.046-.068c-.027-.052-.056-.101-.079-.155a1.374 1.374 0 0 1-.057-.174.615.615 0 0 0-.068-.169c-.049-.077-.106-.15-.103-.253 0-.018-.019-.04-.028-.058-.01-.023-.023-.043-.03-.066-.011-.03-.017-.059-.023-.086-.004-.017-.014-.037-.01-.052.007-.033-.011-.053-.028-.075-.01-.014-.028-.024-.033-.04-.02-.055-.045-.109-.053-.166-.01-.058-.065-.102-.035-.172.002-.005-.009-.017-.013-.026-.036-.057-.068-.116-.109-.172-.036-.05-.047-.121-.108-.155-.004-.002-.004-.01-.005-.013-.017-.029-.037-.053-.056-.08-.02-.03-.05-.058-.062-.093-.017-.046-.028-.09-.08-.111-.008-.003-.017-.016-.018-.024-.01-.069-.058-.107-.094-.155-.02-.028-.045-.05-.067-.074-.025-.027-.038-.068-.076-.088-.03-.014-.074.002-.112-.009-.024-.007-.039-.041-.064-.051a.519.519 0 0 1-.137-.088c-.01-.007-.026-.015-.037-.013-.061.019-.112-.02-.167-.038-.04-.012-.073-.014-.114.01a.215.215 0 0 1-.156.034.375.375 0 0 0-.18.007.293.293 0 0 1-.177.002.186.186 0 0 0-.096-.004c-.07.02-.135.044-.213.066-.058.016-.109-.014-.164.015-.084.044-.105.111-.19.11-.05 0-.1 0-.146.028-.011.007-.03.004-.044 0-.043-.014-.076.003-.103.032-.02.023-.047.025-.072.033a.343.343 0 0 0-.13.072c-.02.02-.036.04-.067.04-.01 0 .013.002.014.023.002.026.016.003.016.034 0 .054-.119.015-.127.057-.005.018.056.025.042.055-.014.034-.062.013-.082.005-.037-.012-.066-.002-.096.013-.091.043-.182.093-.272.138-.023.01-.05.025-.057.046-.014.035-.038.043-.069.046a.119.119 0 0 0-.051.013c-.034.02-.066.018-.103.01a.17.17 0 0 0-.173.055c-.014.015-.01.052-.025.064-.06.046-.103.112-.191.118-.095.005-.18.032-.245.117-.058.075-.12.103-.208.034-.022-.016-.041-.013-.06.01-.015.017-.035.032-.046.05-.019.03-.045.04-.076.054-.057.026-.124.034-.169.094-.015.022-.051.05-.093.037-.01-.004-.033.009-.038.018-.023.047-.064.058-.109.057-.082-.002-.137.068-.213.085-.038.064-.112.064-.165.1-.09.058-.19.093-.27.166-.04.037-.092.054-.092.118-.034.02-.024.053-.026.08-.029.026-.051.054-.077.081a.215.215 0 0 1-.057.048c-.065.031-.132.06-.2.09a.088.088 0 0 0-.051.048.119.119 0 0 1-.103.066c-.043.002-.085.009-.127-.004-.023-.007-.046-.002-.074-.002a.263.263 0 0 1-.002.155c-.033.022-.062.005-.094 0a.645.645 0 0 0-.165-.007c-.02.002-.038.033-.048.043-.043.01-.08.012-.11.025-.041.017-.03.057-.013.098-.075.002-.1.041-.108.107-.007.053-.057.09-.105.108-.048.02-.11-.012-.151.041-.004.005-.024-.003-.037-.005-.042-.007-.062.005-.077.048-.003.013-.01.027-.015.042-.026.002-.053-.005-.068.006a.697.697 0 0 0-.128.106.109.109 0 0 1-.067.041c-.053.007-.084.031-.114.076-.017.03-.066.042-.057.093 0 .005-.013.013-.02.02-.033.024-.064.05-.096.072-.05.035-.094.07-.083.14 0 .009-.012.02-.018.031l-.048-.02c-.041.027-.083.04-.105.072-.046.064-.109.082-.179.096-.106.02-.147.119-.093.211a.25.25 0 0 1 .017.036c-.03.008-.055.016-.081.02-.022.006-.052.004-.064.018-.035.036-.077.033-.12.044a.29.29 0 0 0-.068.028c-.02.012-.036.034-.056.044-.035.015-.057.037-.063.077a.117.117 0 0 1-.082.1c-.028.01-.062.012-.06.044.001.02.029.037.044.056.002.003.002.01.002.01-.032.028-.072.046-.09.08-.017.032-.013.077-.019.12l-.19.064c-.008.004-.02-.002-.028-.003l-.023.001-.075.079a.12.12 0 0 1-.022.042c-.032.031-.036.064-.012.103a.293.293 0 0 0-.131.045l-.08.093v.006c.004.06-.046.092-.072.136-.056-.003-.073.059-.119.074l-.01.004c-.048.047-.096.095-.145.14-.005.02-.006.045-.02.052-.042.026.007.059-.009.085-.007.012-.022.01-.032.01-.026.002-.054 0-.08 0a.436.436 0 0 1-.085.072l-.056.058c.04.027.07.025.09.019a.058.058 0 0 0-.008.007c-.063.019-.101.089-.139.05a.05.05 0 0 1-.005-.007c-.031.035-.06.07-.09.107v.015c.017.095-.01.13-.103.138H2.41c-.01.016-.022.03-.033.046l-.02.028c.017.002.033.003.036.016.025.098-.087.002-.084.108 0 .042-.077.064-.063.093.035.082.012.174-.035.255-.016.028-.057.008-.077.019a.341.341 0 0 0-.078.059c-.005.004-.013.013-.012.016.021.052-.012.09-.035.126a.97.97 0 0 1-.167.208c-.036.037-.101.012-.123.068-.013.03-.033.053-.055.092.001.053-.024.105-.092.134-.048.02-.088.046-.105.108a.535.535 0 0 0-.017.13c-.015.003-.025.003-.034.008-.02.015-.052.028-.06.048-.013.031.021.038.045.05.011.005.016.02.024.03-.013.01-.027.023-.04.023-.045.005-.1-.025-.138.005-.062.051-.037.148-.052.214-.04.005-.09-.02-.113.013-.022.03.015.062.025.098-.036.029-.075.058-.11.094-.015.015-.02.04-.03.062-.003.009 0 .022-.008.026m75.546-5.381a.175.175 0 0 1-.023-.058l-.012-.006c.01-.06-.006-.12.023-.176l-.003-.088c-.029-.03-.035-.069-.032-.109.006-.053.03-.106-.017-.153.001-.042-.01-.184-.012-.289l.005-.015a.117.117 0 0 0 .008-.057c-.005-.035-.01-.073-.028-.1-.036-.05-.01-.08.015-.117a.056.056 0 0 0 .012-.02.295.295 0 0 0-.01-.141.043.043 0 0 1 0-.021.402.402 0 0 0-.006-.153c-.004-.017-.008-.031-.004-.055.002-.008-.012-.025-.023-.033-.036-.031-.038-.045-.008-.078.006-.008.023-.01.03-.022.006-.013.004-.03-.002-.046-.01-.031-.063-.046-.056-.08.002-.016.024-.022.037-.03a.06.06 0 0 0 .018-.009c.005-.01-.002-.023-.002-.036-.002-.065.034-.14.003-.201-.02-.038-.057-.058-.064-.102 0-.008.015-.011.016-.02.007-.047-.008-.091-.003-.141.002-.019-.004-.038-.002-.055.002-.037.004-.07-.01-.104-.006-.019-.003-.04-.003-.06 0-.015.006-.033 0-.044-.033-.068-.015-.128-.004-.188a.066.066 0 0 0 0-.026c-.008-.043-.03-.072-.044-.103-.006-.016-.01-.03-.018-.042-.038-.048-.083-.09-.078-.161 0-.005-.004-.012-.006-.013-.068-.032-.079-.127-.163-.143-.038-.006-.07-.057-.117-.048-.006.002-.012-.008-.02-.011-.017-.008-.033-.02-.051-.02-.088 0-.173-.013-.24-.074-.005-.006-.01-.012-.018-.014a.249.249 0 0 1-.153-.09c-.051-.062-.13-.032-.199-.019-.084.017-.169.06-.253.058a.524.524 0 0 1-.301-.092.142.142 0 0 0-.095-.021.498.498 0 0 0-.147.044c-.052.025-.105.025-.146-.001-.058-.04-.094-.033-.141.011-.042.04-.092.061-.144.015a.059.059 0 0 0-.044-.008c-.068.019-.108-.013-.14-.065-.027-.041-.067-.053-.113-.055a.949.949 0 0 0-.138.014.254.254 0 0 0-.066.026l-.006.004a.461.461 0 0 0-.069.101c-.015.027-.028.048-.061.046-.037-.001-.068-.008-.081-.046-.006-.02-.005-.042-.019-.056-.042-.04-.112-.03-.168-.03-.037-.003-.065-.014-.095-.024-.063-.02-.132-.05-.19-.025-.021.01-.028.038-.04.058-.013.021-.021.048-.035.07-.03.05-.059.052-.09 0a.083.083 0 0 0-.057-.042c-.015-.005-.033-.01-.04-.021-.018-.031-.043-.03-.073-.03-.05 0-.101-.006-.15-.004-.014 0-.03.004-.043.006a1.471 1.471 0 0 0-.161.03c-.047.014-.09.034-.135.049-.124.04-.3-.012-.384.091-.006.006.006.02.002.027-.024.03-.054-.006-.077-.015a.117.117 0 0 0-.1.017c-.007.005-.006.016-.011.023-.012.017-.033.03-.05.03-.03 0-.067.005-.088-.017-.006-.008.004-.019-.003-.023-.123-.105-.324.005-.485.008-.104.002-.228-.085-.313-.021-.004.001-.004.006-.004.011-.006.038-.025.07-.055.053-.021-.011-.03-.044-.043-.046a.215.215 0 0 0-.112.015c-.055.025-.09 0-.138-.018a.193.193 0 0 0-.16.018c-.04.027-.056.062-.11.05-.031-.008-.058-.03-.09-.043l-.002-.001c-.066-.014-.144-.033-.207-.004a.015.015 0 0 0-.003.006c-.048.085-.128.1-.21.117-.016.003-.043.006-.045.018-.025.068-.08.054-.131.048-.071-.008-.076-.006-.078.063l-.244.008c-.001-.01-.024-.026-.04-.028-.06-.012-.09-.048-.109-.094-.01-.025-.023-.04-.046-.046-.05-.015-.088-.054-.136-.065-.092-.023-.184.034-.278.061-.02.005-.046.002-.061.019-.014.015.006.051-.016.067-.032.029-.09.01-.132.006-.015-.004-.02-.014-.03-.017-.031-.008-.068.01-.093.03-.015.014-.008.043-.023.054a.139.139 0 0 1-.136.023c-.006-.003-.005-.021-.017-.025a.188.188 0 0 0-.18.035c-.019.02.025.088-.015.096-.1.019-.129-.075-.194-.092h-.001c-.014 0-.022-.01-.033-.01-.007 0-.012.006-.017.007-.035.008-.07.017-.104.021-.07.012-.138-.03-.21-.01a.32.32 0 0 1-.11.016c-.094-.006-.19-.008-.284-.025-.046-.008-.078.008-.128.017-.015.003-.02-.01-.03-.014-.053-.025-.103-.055-.162-.021-.008.005-.025.003-.037-.002-.05-.02-.103-.035-.155-.008-.006.004-.022-.002-.03-.006-.033-.02-.062-.042-.095-.061a.28.28 0 0 0-.147-.06.25.25 0 0 1-.178-.08.107.107 0 0 0-.036-.026.329.329 0 0 0-.081-.021c-.055-.012-.102-.052-.161-.043-.035.004-.05-.021-.063-.048-.006-.017-.019-.038-.03-.04-.092-.011-.17-.057-.257-.08-.045-.011-.085-.008-.113.032-.03.044-.078.094-.042.145.054.077.044.136-.008.206-.013.02-.028.036-.038.055a.923.923 0 0 0-.08.197c-.005.021.021.044.013.067-.011.032-.055.042-.084.053a.167.167 0 0 1-.031.003.694.694 0 0 1-.093.077c-.015.05-.032.096-.103.103-.006.002-.015.013-.02.021-.019.025-.042.03-.07.022-.038-.014-.068-.004-.1.02a.117.117 0 0 1-.073.016.275.275 0 0 1-.114-.036c-.054.005-.106.006-.16.008-.062 0-.127-.002-.19-.004a.047.047 0 0 1-.031.015c-.05.004-.1.004-.14-.02l-.243-.006-.068.012a.608.608 0 0 0-.043.006.09.09 0 0 0-.008.028c-.001.03-.026.04-.051.032-.045-.014-.096-.006-.14-.03-.152.024-.303.05-.454.08l-.105.029c-.07.026-.142.051-.215.082-.092.042-.197.063-.283.118a.182.182 0 0 1-.101.034c-.093.006-.179.052-.272.062-.035.003-.077-.017-.108.001-.044.029-.04.052-.124.043-.04-.004-.085-.012-.123.021-.03.027-.08-.003-.117-.02-.086-.036-.212-.037-.28.027-.015.016-.004.045-.006.065-.017.09-.078.121-.161.086-.02-.008-.046-.024-.063-.02a.296.296 0 0 1-.182-.012c-.052-.02-.111-.023-.163-.042-.031-.013-.063-.029-.098-.031-.172-.02-.346.025-.52.048-.065.008-.136-.006-.196.021-.028.013-.044.044-.066.065-.007.006-.024.01-.03.006-.039-.019-.074-.013-.112-.002-.011.004-.033-.01-.044-.02-.01-.009-.02-.02-.031-.024-.017-.005-.035 0-.054.003-.044.008-.094.012-.132.037a.462.462 0 0 0-.055.04c-.038.033-.046.031-.09.011a.164.164 0 0 0-.056-.011c-.006-.002-.013.002-.02.003a.087.087 0 0 0-.03.017c-.03.029-.058.023-.093.015a.155.155 0 0 0-.038-.013c-.197-.02-.398.023-.595.01-.002 0-.004 0-.006-.002-.105-.008-.212-.008-.314-.011-.136-.007-.272-.039-.405-.016-.02.002-.036.012-.055.012-.096.002-.187-.023-.28-.043l-.015-.001c-.124-.02-.243-.06-.37-.07-.122-.01-.245.014-.367-.01-.406-.076-.378-.494-.412-.85v-.005c-.005-.012-.008-.022-.015-.031-.005-.008-.011-.019-.01-.03 0-.006.009-.007.009-.012.005-.021-.008-.043-.014-.065-.042-.214-.122-.436-.117-.657-.004-.006-.004-.01-.005-.016-.024-.028-.045-.056-.067-.084l-.002-.002-.003-.003-.016-.008a.645.645 0 0 0-.214-.039c-.001 0-.005.002-.006.004-.035.033-.073.036-.115.023a1.302 1.302 0 0 0-.11.055c-.068.13-.19.151-.31.249-.045.036-.042.078-.057.164-.005.03-.046.029-.06.047-.032.041-.08.086-.085.132-.008.068-.039.126-.06.19-.008.02-.019.05-.011.072.02.068-.012.126-.017.19-.016.22.044.446.136.648.001.005.008.006.008.012.001.006-.002.011-.002.018.01.264.114.516.164.774l.023.15c.023.066.054.128.054.202.001.053.013.105-.004.157.04.328.071.658.142.98.096.436.277.735.67.95a.687.687 0 0 1 .153.024c.025.007.048.014.073.019l.02.002.02.002.049.003.018-.011c.047-.039.102-.058.161-.016.042.03.081.016.121-.013.056-.043.1-.033.14.029l.028.042c.029.002.056.002.085.008a.12.12 0 0 1 .032.01l.08.005a.87.87 0 0 0 .13-.006.375.375 0 0 1 .195-.031 1.858 1.858 0 0 1 .427-.025c.003-.002.007-.002.01-.003l.018-.01a.493.493 0 0 1 .088-.042c.02-.006.041-.006.063-.008.011-.004.021-.004.033-.005a.172.172 0 0 1 .047-.014c.008 0 .016.002.018.007a.35.35 0 0 1 .08.008.67.67 0 0 1 .253.142l.03.03c.027.022.056.043.077.07l.023.031a.117.117 0 0 1 .063.071l-.003.031c.002.006.005.008.006.014l.005.017c.029.03.056.06.08.092.022.01.035.03.042.065a.992.992 0 0 1 .13.323.183.183 0 0 0 .009.012c.05.021.057.07.08.11.036.064.074.128.112.191.039.063.083.121.106.186.014.042.027.08.05.117.023.042.042.088.08.121.01.008.017.027.017.042-.002.042.021.066.048.091.05.043.08.1.098.163a.337.337 0 0 0 .084.163.178.178 0 0 1 .044.104l.002.002.002-.002c.03-.013.031.062.046.092.017.033.029.07.044.104v.002c.023.026.053.042.069.076.042.09.042.2.129.262a.024.024 0 0 1 .01.013c.04.113.057.232.134.33.017.023.055.005.066.023.037.062.004.126.052.174.01.008.019.02.02.033.006.07.051.123.076.188.023.058.067.107.065.177 0 .014.013.025.021.039.008.013.018.025.023.038.014.053.014.12.08.132.002 0 .004.004.004.007 0 .06.04.107.065.159.003.008.003.02.005.03.005.042.003.085.008.129.002.015.011.033.021.038.047.023.054.066.067.107.036.118.086.23.113.35.02.093.088.17.088.269 0 .03-.004.066.01.09.04.074.067.145.063.232 0 .006.01.013.015.019a.62.62 0 0 1 .08.22.09.09 0 0 0 .015.043c.055.075.057.166.094.247a.496.496 0 0 0 .09.275c.003.007.008.014.01.022.016.074.03.15.044.225.006.035.015.068.046.093a.105.105 0 0 1 .031.058c.017.066.027.137.048.2.03.095.033.095.031.194 0 .006.007.015.008.021l.002.025a.417.417 0 0 1 .017.072v.003l.004.005c.008.025.016.05.023.077.02.028.04.06.05.091.028.092.05.188.066.282.002.013 0 .027.004.04l.1.396c.012.042.014.088.034.126l.046.405v.005c.015.037.025.071.044.106.006.01.02.015.022.025.021.06.044.12.06.184.013.053.001.103-.003.157 0 .011.008.021.008.035v.013l.009.033.006.02c.015.03.025.064.036.095.027.07.037.144.061.215.012.036.01.066.008.095-.003.043.017.085.02.128.004.035-.006.073.004.108.003.011.013.021.02.033.003.008.007.02.004.028 0 .002-.003 0-.003.002-.012.03.017.065.01.096l.001.021c.008.033.016.067.022.1.006.021.015.044.023.066.002.006.005.008.005.014.002.003 0 .006.002.011l.017.006a.326.326 0 0 0 .026.209c.022.041.025.08.025.124 0 .011-.005.026-.001.038.023.08.051.16.07.24a.277.277 0 0 1 .01.148.211.211 0 0 1 .017.055c.002.008.007.015.007.02a.125.125 0 0 1-.004.068.119.119 0 0 1 .004.025l.008.004a.315.315 0 0 1 0 .105c-.006.023.001.051.005.076.003.029.101.567.115.635a.227.227 0 0 1-.022.041c0 .025-.002.048-.003.071.02.033.04.07.066.1.025.03.058.061.093.071.1.023.19.075.293.076a.073.073 0 0 1 .036.016.556.556 0 0 0 .163.038l.132-.031c.022-.007.045-.027.068-.027.04-.002.08.005.119.012.065.013.128.028.174.074l.006.002c.062-.044.077-.042.121.021l.01.008c.058.017.115.035.176.05l.011.004a2.83 2.83 0 0 1 .121-.039c.015-.003.037 0 .043.008.042.056.111.072.164.08a.22.22 0 0 1 .098.043c.033.006.067.019.1.021.011 0 .023.007.03.002.022-.011.03-.036.057-.033.061.006.126-.006.177.031.06.045.118.05.203.062.05.006.07-.02.116-.023.025 0 .039.024.055.036l.004.002c.031.011.07.01.101 0 .014-.006.025-.017.035-.023a1.22 1.22 0 0 0 .075-.056c.01-.008.026-.022.026-.029-.008-.017-.021-.042-.033-.044-.055-.008-.03-.05-.066-.081-.012-.01-.022-.029-.033-.03-.052-.006-.063-.035-.081-.077-.017-.038-.043-.067-.036-.114.006-.038.016-.068.06-.081.01-.004.024-.008.03-.02.034-.078-.085-.166-.085-.248a.955.955 0 0 0-.038-.25.202.202 0 0 1-.006-.046c0-.067-.041-.116-.076-.162-.008-.01-.02-.015-.02-.023.006-.056.058-.113.025-.151-.03-.031-.078-.046-.1-.086-.01-.02 0-.042-.007-.064-.004-.011-.014-.018-.023-.026.008.02.01.042-.008.055-.031.017-.027-.033-.022-.08 0-.004 0-.006.004-.008h.002c-.007-.035.03-.06.066-.078.05-.025.067-.092.04-.142a.235.235 0 0 1-.025-.17c.018-.07.022-.07-.032-.108a.337.337 0 0 0-.02-.015c-.052-.042-.055-.073-.026-.132.01-.019.015-.038.023-.058.008-.02.02-.04.023-.061a3.91 3.91 0 0 0 .043-.582c0-.007.002-.014-.002-.019-.015-.019-.06 0-.065-.023-.001-.005.008-.006.01-.012.008-.03-.028-.055-.028-.086.002-.02.017-.042.021-.066.006-.029.002-.063.013-.087.031-.06.062-.126.136-.149h.004c.008-.008.005-.023.008-.034.06-.208.166-.401.172-.612.004-.058-.017-.114-.021-.172-.004-.025.02-.062-.002-.077-.006-.003-.013.012-.021.008-.03-.013-.025-.056-.035-.082-.005-.008-.015-.022-.006-.035.012-.019.04-.013.06-.02l.001-.001c.04-.05.01-.127.017-.19.008-.066.033-.132.025-.199-.004-.026-.02-.05-.031-.072-.006-.017-.017-.033-.018-.048-.006-.045-.006-.088-.01-.131-.003-.042.007-.08.042-.105.031-.02.073-.023.098-.046.055-.05.042-.142.067-.213.034-.09.1-.175.132-.275a.23.23 0 0 0 .017-.096c-.006-.025-.031-.043-.052-.061-.056-.048-.051-.056-.003-.121.03-.038.067-.075.074-.13a.288.288 0 0 1 .033-.104c.008-.018.023-.036.02-.056 0-.002-.004-.003-.004-.005-.021-.015-.058-.028-.042-.055.011-.023.046-.035.072-.045h.006c.162-.152.098-.434.167-.65.003-.012.011-.022.013-.036.002-.018-.026-.041-.015-.06.008-.014.033-.003.043-.014a.457.457 0 0 0 .126-.316c0-.03-.006-.054.023-.081.008-.007.02-.014.027-.022.041-.053.056-.122.088-.182.017-.033.057-.063.055-.103-.006-.04-.054-.06-.081-.092-.05-.058-.03-.12.046-.136.043-.008.088-.022.134.006.002 0 .006.002.008 0 .008-.005.01-.019.012-.03.035-.17.013-.347.027-.517.011-.128.076-.254.05-.38-.003-.013-.018-.023-.027-.035-.037-.032-.018-.055-.014-.095.002-.035-.026-.062-.048-.083-.02-.02-.055-.027-.078-.045-.08-.053-.076-.13.004-.187.018-.013.03-.036.05-.055a.412.412 0 0 1 .036-.038c.015-.015.035-.027.048-.045a.144.144 0 0 1 .091-.065c.043-.01.065-.04.065-.086.002-.048-.017-.103.006-.142.016-.023.054-.015.07-.031.056-.055.091-.151.065-.226-.008-.023-.043-.026-.065-.042-.048-.03-.048-.038-.022-.084a.204.204 0 0 0 .035-.083c.005-.038.013-.06.055-.067.019-.004.03-.027.045-.04.023-.019.041-.042.066-.052.006-.003.015-.005.02-.01.026-.03.026-.074.042-.11.002-.006.006-.01.007-.016l.001-.006c0-.005 0-.01-.003-.017-.014-.042-.002-.067.036-.086 0-.002.002-.002.002-.002.042-.048.04-.12.06-.18.063-.19.137-.375.182-.567l.03-.134V6.5a.183.183 0 0 1 .03-.088c.041-.217.099-.43.164-.644.04-.132.08-.27.157-.387.036-.056.08-.105.12-.155-.009-.042.018-.079.039-.115.013-.023.031-.045.033-.067 0-.034.01-.058.044-.07.012-.007.022-.024.029-.035.033-.056.061-.11.096-.17.094.016.122-.09.195-.117-.015-.063.086-.078.061-.145 0-.007.012-.019.02-.022.052-.023.105-.041.151-.08.033-.029.084-.039.121-.064.083-.057.184-.084.268-.14a.173.173 0 0 1 .085-.022l.275-.008c.006-.008.015-.017.023-.019a.133.133 0 0 1 .065.004c.005.001.005.006.008.011.16-.008.32-.018.48-.025a.306.306 0 0 1 .089-.07c.058-.03.1-.089.17-.093.012 0 .018-.017.029-.025.061-.035.084-.124.176-.124a2.738 2.738 0 0 0-.005-.073c.057-.019.114-.038.172-.052.061-.015.103.017.113.081.01.064.025.13.038.196.004.01.013.02.021.03.029.027.033.06.033.098l.002.03c.119.014.237.022.356.029.006-.004.015-.006.02-.012.041-.036.073-.023.107.006.006.005.014.008.022.013l.042.002c.07-.033.134-.07.203-.108.003-.001.005-.008.01-.011.046-.025.078-.083.147-.068.014.004.038-.018.053-.034.017-.012.025-.031.04-.047.039-.034.045-.034.083-.001.037.03.071.061.103.092.03.029.063.037.09.01.043-.04.08-.025.117.003a.167.167 0 0 0 .153.02c.01-.043.028-.084.031-.126.004-.038.021-.058.044-.085a.608.608 0 0 0 .097-.144c.013-.028.018-.057.053-.064.04-.007.044.028.058.053.017.028.028.056.042.09.063-.037.113-.031.157.011.01.008.03.017.044.015.068-.01.138-.02.203-.034.037-.008.081-.02.104.011a.355.355 0 0 1 .074.144c.215.02.418.085.636.125a.188.188 0 0 0 .052-.03c.043-.037.091-.062.15-.045.03.011.055.036.087.06.053-.022.11-.042.166-.068.014-.005.03-.021.029-.033-.008-.058.034-.094.056-.14.038-.069.098-.072.167-.063.056.008.076.055.096.098.005.008.006.021.008.03a.153.153 0 0 0 .128.111c.073.014.153.032.225-.016a.105.105 0 0 1 .05-.016c.042-.006.085-.034.12.02.053-.06.11-.071.177-.036.012.048.033.072.067.08.036-.008.073-.016.109-.02.08-.03.166-.025.247-.04.01-.002.023 0 .031.005.046.033.111-.001.156.043.005.005.02 0 .03 0h.14l.008.091c.017.017.04.03.052.052.053.09.129.128.233.115a.603.603 0 0 0 .229-.065c.03-.015.136.017.172.01.045-.008-.03-.043.015-.054.038-.008.065-.008.081.033.002.002.002.005.004.006-.025.012-.044.022-.04.031.023.064.034.125.003.18.015.047.025.091.043.13a.16.16 0 0 1-.002.147c-.018.037-.021.07.002.106.008.013.02.036.015.046-.03.053.157.274.155.326 0 .062.075-.01.137 0 .011.002.024 0 .036-.005.043-.013.08-.063.1-.115.001-.015.005-.03.006-.042 0-.007.003-.014.001-.019-.008-.06.014-.12-.008-.18-.003-.008.007-.02.007-.029a1.25 1.25 0 0 0 .01-.107c.001-.025 0-.048.003-.071l.002-.006-.002-.036.003-.004Zm-12.563.554a.164.164 0 0 1 .002.06c-.058.344-.144.68-.232 1.017a.196.196 0 0 0 .02.01l-.029.05c-.027.042-.025.076.01.107.042.042.044.063.003.098-.02.015-.053.02-.028.057.002.004-.008.017-.017.022a.09.09 0 0 0-.038.088c.002.013-.002.028-.012.034-.034.038-.02.063.015.09.014.01.027.023.048.04-.006.021-.013.048-.023.076-.006.02-.017.042-.02.063a.141.141 0 0 1-.117.127l-.02.001c-.05.226-.1.45-.156.675-.103.41-.257.784-.414 1.17 0 .005.003.008.003.012-.006.046-.015.091-.021.136a.161.161 0 0 1 .025.08l-.002.036-.46 1.984c-.006 0-.069.348-.076.348l-.015.016a.098.098 0 0 1-.03.051c-.012.228-.042.452-.071.678-.006.03-.007.06-.012.09l-.002.023c-.005.031-.008.063-.011.094-.008.176-.047.355-.015.53l-.008.095c.055.073-.06-.004-.047.06.012.06.025.09-.01.133-.015.02-.034.039-.047.058-.022.29-.031.582-.022.872.022.011.042.028.047.051v.017a.134.134 0 0 1 .01.029.052.052 0 0 1-.006.04.028.028 0 0 1-.006.008s.017.456.028.607v.018a.084.084 0 0 1-.011.048c-.002.006-.006.008-.008.012a.088.088 0 0 1-.039.06.045.045 0 0 1-.024.007.068.068 0 0 1-.033.002c-.025-.006-.043-.028-.058-.05a.045.045 0 0 1-.027-.03l-.008.002c-.006-.008-.006-.023-.005-.035.002-.008.002-.017.002-.024a.596.596 0 0 1-.025-.1.198.198 0 0 0-.031-.031.164.164 0 0 1-.058-.144.022.022 0 0 0 0-.015c-.012-.04-.028-.078-.033-.117-.006-.039.021-.079-.008-.12-.006-.01-.01-.032-.005-.042.026-.045.03-.094-.002-.126-.042-.043-.015-.05-.042-.096l-.015-.012-.002-.002s-.001-.003-.003-.003c-.005-.004-.01-.005-.014-.01-.016 0-.03-.013-.038-.033-.011-.025-.026-.05-.03-.076a.131.131 0 0 1 .005-.075c.016-.04.003-.061-.014-.096-.044-.098.031-.205-.003-.303a1.547 1.547 0 0 1-.05-.153c-.008-.03-.004-.061-.004-.091a.256.256 0 0 0-.018-.113c-.023-.048-.05-.09-.056-.142-.006-.077-.051-.113-.107-.15l-.003-.001c-.045-.08-.006-.2-.016-.214-.034-.052-.072-.081-.055-.142.012-.04.002-.073-.017-.107a.251.251 0 0 1-.017-.19c.005-.023-.02-.038-.025-.076-.007-.044.01-.08.021-.126.01-.035-.008-.071-.023-.103-.017-.033-.046-.058-.067-.088-.028-.043-.041-.093-.01-.144.002-.005.006-.008.006-.013 0-.004-.002-.007-.004-.01-.026-.092-.008-.19-.04-.28l-.003-.006c-.061-.05-.151-.124-.117-.207 0-.001.006 0 .007-.003.008-.017 0-.038-.007-.056-.006-.015-.015-.025-.017-.043-.001-.048-.05-.069-.07-.105-.016-.027-.034-.056-.035-.083-.007-.085-.033-.06-.073-.129-.052-.09-.076-.178-.105-.275-.012-.039.01-.079.006-.115-.002-.019-.017-.035-.025-.053-.006-.01-.02-.022-.018-.03.011-.054-.012-.085-.043-.117a.14.14 0 0 1-.036-.076c-.002-.081-.048-.144-.083-.21-.02-.037-.025-.082-.036-.124-.004-.011-.006-.026-.012-.036a.557.557 0 0 1-.086-.289c-.006-.065-.045-.105-.085-.142-.026-.027-.046-.048-.026-.088.005-.011.008-.027.005-.038a1.602 1.602 0 0 0-.056-.23c-.01-.03-.065-.043-.073-.086a.59.59 0 0 0-.034-.12c-.022-.055-.087-.032-.125-.066-.028-.025-.025-.07-.03-.105a.303.303 0 0 1 0-.08c.006-.03.024-.057.018-.085-.006-.025-.029-.045-.045-.067-.057-.078-.088-.164-.14-.25-.005-.008-.016-.01-.026-.012-.036-.01-.067-.019-.073-.067 0-.017.01-.03.007-.044-.002-.01-.014-.015-.02-.023-.02-.025-.043-.052-.058-.08l-.025-.061c-.008-.025-.02-.047-.02-.077 0-.017-.018-.038-.032-.046-.071-.043-.105-.108-.086-.19.018-.078-.038-.122-.07-.178-.01-.019-.036-.03-.04-.046a3.074 3.074 0 0 0-.05-.213.14.14 0 0 0-.032-.07c-.029-.03-.056-.047-.056-.097-.002-.03-.025-.06-.035-.091-.011-.035-.025-.068-.033-.103-.015-.056-.058-.086-.101-.123a.11.11 0 0 0 0-.042 1.086 1.086 0 0 1-.068-.116l-.001-.005c-.029-.033-.048-.068-.04-.11a.249.249 0 0 1-.002-.08c-.008-.037-.138-.067-.124-.098.001-.006.005-.006.007-.012a.484.484 0 0 1 .374-.253c.002 0 .004 0 .004-.002a.148.148 0 0 1 .046-.008 1.14 1.14 0 0 1 .466-.199c.091-.048.18-.103.276-.146.13-.057.267-.08.408-.096.025-.006.05-.015.075-.02a1.17 1.17 0 0 1 .215-.016c.026-.005.053-.006.08-.01.027-.006.053-.013.08-.017a.41.41 0 0 1 .21.012c.194-.053.385-.115.585-.129.012-.002.025-.002.037-.003.001-.004.003-.004.003-.007.002-.01.017-.025.027-.025.036-.005.06-.023.069-.06.002-.004.013-.009.02-.01.067-.016.137-.03.22-.045.028-.088.124-.08.195-.098.023-.038.042-.07.063-.096.024-.025.049-.026.077 0 .028.029.058.05.088.075l.116-.006c.04-.035.046-.033.09-.006l.126.002c.111.004.214.002.324-.025.086-.021.172-.042.26-.056.08-.074.182-.07.283-.074a.239.239 0 0 0 .077-.016c.053-.026.101-.018.15.01a.084.084 0 0 1 .036.03c.03.029.05.067.05.118 0 .063-.014.12-.035.176l-.003-.001Z"/>
</svg>
